<svg aria-hidden="true" style="position: absolute; width: 0; height: 0; overflow: hidden;" version="1.1" xmlns="http://www.w3.org/2000/svg" xmlns:xlink="http://www.w3.org/1999/xlink">
<defs>
<symbol id="icon-window" viewBox="0 0 48 48">
<title>window</title>
<path d="M26.9 33.37l2.91 2.91c0.959 0.96 2.509 0.96 3.469 0 0.961-0.96 0.961-2.511 0-3.47l-2.899-2.91 2.899-2.9c0 0-10.979-4.69-11.429-4.86-0.24-0.090-0.49-0.14-0.75-0.14-1.16 0-2.1 0.93-2.1 2.080 0 0.27 0.050 0.52 0.14 0.75 0.17 0.43 4.86 11.45 4.86 11.45l2.9-2.91zM0 43c0 2.21 1.79 4 4 4h40c2.21 0 4-1.79 4-4l-0-37c0-2.21-1.79-4-4-4h-40c-2.21 0-4 1.79-4 4v37zM7.2 16h33.6c1.22 0 2.2 0.98 2.2 2.2v21.6c0 1.22-0.98 2.2-2.2 2.2l-33.6-0c-1.22 0-2.2-0.98-2.2-2.2v-21.6c0-1.22 0.98-2.2 2.2-2.2zM5 9.5c0-1.38 1.12-2.5 2.5-2.5s2.5 1.12 2.5 2.5-1.12 2.5-2.5 2.5-2.5-1.12-2.5-2.5zM14 9.5c0-1.38 1.12-2.5 2.5-2.5s2.5 1.12 2.5 2.5-1.12 2.5-2.5 2.5-2.5-1.12-2.5-2.5zM23 9.5c0-1.38 1.12-2.5 2.5-2.5s2.5 1.12 2.5 2.5-1.12 2.5-2.5 2.5-2.5-1.12-2.5-2.5z"></path>
</symbol>
<symbol id="icon-board" viewBox="0 0 48 48">
<title>board</title>
<path d="M23.5 31.97c-1.12-1.42-2.1-2.12-4.53-2.359-0.44-0.080-0.76-0.46-0.76-0.91 0-0.33 1.080-1.32 1.069-1.33 1.121-1.131 1.721-2.961 1.721-4.371 0-2.189-1.939-4-4.5-4-2.61 0-4.5 1.811-4.5 4 0 1.42 0.59 3.26 1.71 4.391 0 0 1.080 0.979 1.080 1.31 0 0.47-0.36 0.87-0.84 0.93-2.381 0.24-3.341 0.94-4.45 2.34-0.311 0.41-0.49 1.22-0.5 1.65v1.88c0 0.83 0.689 1.5 1.54 1.5h11.92c0.851 0 1.54-0.67 1.54-1.5v-1.88c-0.010-0.432-0.181-1.241-0.5-1.651zM35.5 21h-5c-1.38 0-2.5 1.12-2.5 2.5s1.12 2.5 2.5 2.5h5c1.38 0 2.5-1.12 2.5-2.5s-1.12-2.5-2.5-2.5zM35.5 30h-5c-1.38 0-2.5 1.12-2.5 2.5s1.12 2.5 2.5 2.5h5c1.38 0 2.5-1.12 2.5-2.5s-1.12-2.5-2.5-2.5zM0 42c0 2.21 1.79 4 4 4h40c2.21 0 4-1.79 4-4l-0-32c0-2.21-1.79-4-4-4h-12v-1.8c0-1.22-0.98-2.2-2.2-2.2h-11.6c-1.22 0-2.2 0.98-2.2 2.2v1.8h-12c-2.21 0-4 1.79-4 4v32zM7.2 11h8.8v1.8c0 1.22 0.98 2.2 2.2 2.2h11.6c1.22 0 2.2-0.98 2.2-2.2l-0-1.8h8.8c1.22 0 2.2 0.98 2.2 2.2v25.6c0 1.22-0.98 2.2-2.2 2.2l-33.6-0c-1.22 0-2.2-0.98-2.2-2.2v-25.6c0-1.22 0.98-2.2 2.2-2.2z"></path>
</symbol>
<symbol id="icon-pencil" viewBox="0 0 48 48">
<title>pencil</title>
<path d="M5.561 20.207c-0.979 0.979-1.45 2.38-1.689 3.8l-3.812 18.020c-0.54 3.201 2.67 6.421 5.911 5.921l18.041-3.761c1.32-0.239 2.75-0.65 3.73-1.63l19.11-19.131c1.53-1.539 1.53-4.029 0-5.569l-16.69-16.71c-1.54-1.53-4.030-1.53-5.561 0l-19.040 19.060zM23.901 39.437l-9.34 1.791-7.74-7.75 1.779-9.351 13.911-13.93c0.77-0.771 2.010-0.771 2.78 0 0.771 0.77 0.771 2.020 0 2.79l-12.861 12.88c-0.96 0.96-0.96 2.521 0 3.479 0.96 0.961 2.51 0.961 3.47 0l12.871-12.88c0.771-0.77 2.010-0.77 2.78 0 0.771 0.771 0.771 2.011 0 2.78l-12.861 12.88c-0.96 0.96-0.96 2.521 0 3.48 0.96 0.96 2.511 0.96 3.47 0l12.871-12.88c0.761-0.761 2.011-0.761 2.781 0 0.77 0.77 0.77 2.020 0 2.789l-13.911 13.922z"></path>
</symbol>
<symbol id="icon-pen" viewBox="0 0 48 48">
<title>pen</title>
<path d="M23.11 27.641l-16.95 16.949c-0.36 0.36-0.58 0.86-0.58 1.41 0 1.1 0.89 2 2 2 0.29 0 0.56-0.061 0.81-0.17 0 0 28.24-12.24 28.561-12.391 0.659-0.299 1.17-0.879 1.37-1.6l4.57-16.47 0.92 0.91c0.959 0.96 2.51 0.96 3.469 0 0.961-0.96 0.961-2.511 0-3.47l-14.091-14.089c-0.959-0.96-2.51-0.96-3.469 0-0.961 0.96-0.961 2.511 0 3.47l0.91 0.91-16.5 4.59c-0.72 0.211-1.3 0.73-1.6 1.41l-12.37 28.541c-0.1 0.239-0.16 0.5-0.16 0.779 0 1.11 0.9 2 2 2 0.57 0 1.080-0.23 1.44-0.609l16.92-16.92c-0.23-0.591-0.36-1.221-0.36-1.891 0-2.76 2.24-5 5-5s5 2.24 5 5-2.24 5-5 5c-0.67 0-1.3-0.13-1.89-0.359z"></path>
</symbol>
<symbol id="icon-user" viewBox="0 0 48 48">
<title>user</title>
<path d="M41.689 34.59c-2.899-3.79-6.64-5.75-12.959-6.38-1.141-0.229-2-1.24-2-2.44 0-0.879 2.819-3.51 2.799-3.529 2.91-3.011 4.471-7.901 4.471-11.661 0-5.84-4.7-10.58-10.5-10.58s-10.5 4.74-10.5 10.58c0 3.78 1.52 8.7 4.46 11.71 0 0 2.81 2.601 2.81 3.479 0 1.271-0.96 2.33-2.2 2.48-6.19 0.65-9.89 2.6-12.76 6.34-0.83 1.081-1.28 3.251-1.31 4.411 0.010 0.3 0 5 0 5 0 2.21 1.79 4 4 4h31c2.21 0 4-1.79 4-4 0 0-0.010-4.7 0-5-0.029-1.16-0.48-3.33-1.311-4.41z"></path>
</symbol>
<symbol id="icon-user1" viewBox="0 0 48 48">
<title>user1</title>
<path d="M41.689 34.59c-2.1-2.74-4.64-4.52-8.279-5.529l-3.41 11.939c0 1.1-0.9 2-2 2s-2-0.9-2-2v-9.5c0-1.38-1.12-2.5-2.5-2.5s-2.5 1.12-2.5 2.5v9.5c0 1.1-0.9 2-2 2s-2-0.9-2-2l-3.41-11.939c-3.64 1.020-6.18 2.789-8.28 5.529-0.83 1.080-1.28 3.25-1.31 4.41v5c0 2.21 1.79 4 4 4h31c2.21 0 4-1.79 4-4v-5c-0.030-1.16-0.48-3.33-1.311-4.41zM23.5 25c6.74 0 10.5-8.58 10.5-14.42s-4.7-10.58-10.5-10.58-10.5 4.74-10.5 10.58 3.64 14.42 10.5 14.42z"></path>
</symbol>
<symbol id="icon-user2" viewBox="0 0 48 48">
<title>user2</title>
<path d="M41.689 34.59c-1.17-1.529-2.479-2.76-4.050-3.729-2.429 5.389-7.849 9.139-14.139 9.139s-11.71-3.75-14.141-9.14c-1.56 0.97-2.879 2.2-4.049 3.729-0.83 1.081-1.281 3.251-1.31 4.411 0.010 0.3 0 5 0 5 0 2.21 1.79 4 4 4h31c2.21 0 4-1.79 4-4 0 0-0.010-4.7 0-5-0.030-1.16-0.48-3.33-1.311-4.41zM18.069 28.25c-0.839 0.090-1.64 0.2-2.399 0.33-0.87 0.22-1.53 1.010-1.53 1.95 0 0.39 0.11 0.739 0.3 1.050 2.1 2.69 5.379 4.42 9.060 4.42 3.59 0 6.79-1.64 8.9-4.21 0.279-0.34 0.439-0.78 0.439-1.26 0-0.98-0.71-1.8-1.65-1.97-0.779-0.141-1.6-0.261-2.479-0.351-1.13-0.209-1.98-1.009-1.98-2.209 0-1.1 0.819-1.939 1.92-2.080 0.109-0.020 0.369-0.029 0.369-0.029 5.381-0.381 9.041-1.471 11.45-3.551 0.331-0.35 0.531-0.82 0.531-1.34 0-1.040-0.79-1.89-1.8-1.99-2.97-0.6-5.2-3.060-5.2-6.010v-0.42c0-5.84-4.7-10.58-10.5-10.58s-10.5 4.74-10.5 10.58v0.42c0 2.95-2.23 5.41-5.2 6.010-1.010 0.1-1.8 0.95-1.8 1.99 0 0.52 0.2 0.99 0.529 1.34 2.421 2.080 6.080 3.17 11.471 3.551 0.16 0 0.311 0.010 0.45 0.029 1.119 0.16 1.819 0.96 1.819 2.080 0.001 1.28-0.958 2.1-2.2 2.25z"></path>
</symbol>
<symbol id="icon-trashcan" viewBox="0 0 48 48">
<title>trashcan</title>
<path d="M42.5 10h-6.5v-6c0-2.21-1.79-4-4-4h-16c-2.21 0-4 1.79-4 4v6h-6.5c-1.38 0-2.5 1.12-2.5 2.5s1.12 2.5 2.5 2.5h1.5v29c0 2.21 1.79 4 4 4h26c2.21 0 4-1.79 4-4l-0-29h1.5c1.38 0 2.5-1.12 2.5-2.5s-1.12-2.5-2.5-2.5zM31 10h-14v-2.8c0-1.22 0.98-2.2 2.2-2.2h9.6c1.22 0 2.2 0.98 2.2 2.2v2.8zM17 17v24c0 1.1-0.9 2-2 2s-2-0.9-2-2v-24c0-1.1 0.9-2 2-2s2 0.9 2 2zM26 17v24c0 1.1-0.9 2-2 2s-2-0.9-2-2v-24c0-1.1 0.9-2 2-2s2 0.9 2 2zM35 17v24c0 1.1-0.9 2-2 2s-2-0.9-2-2v-24c0-1.1 0.9-2 2-2s2 0.9 2 2z"></path>
</symbol>
<symbol id="icon-card" viewBox="0 0 48 48">
<title>card</title>
<path d="M26.5 28h-14c-1.38 0-2.5 1.12-2.5 2.5s1.12 2.5 2.5 2.5h14c1.38 0 2.5-1.12 2.5-2.5s-1.12-2.5-2.5-2.5zM0 39c0 2.21 1.79 4 4 4h40c2.21 0 4-1.79 4-4l-0-30c0-2.21-1.79-4-4-4h-40c-2.21 0-4 1.79-4 4v30zM7.2 10h33.6c1.22 0 2.2 0.98 2.2 2.2v2.8h-38v-2.8c0-1.22 0.98-2.2 2.2-2.2zM5 23h38v12.8c0 1.22-0.98 2.2-2.2 2.2h-33.6c-1.22 0-2.2-0.98-2.2-2.2v-12.8z"></path>
</symbol>
<symbol id="icon-lamp" viewBox="0 0 48 48">
<title>lamp</title>
<path d="M16 37v3.010c0 1.4 0.58 2.671 1.51 3.58l2.94 2.94c1.96 1.96 5.14 1.96 7.1 0l2.94-2.94c0.93-0.909 1.51-2.18 1.51-3.58l-0-2.010h-8.9c-1.16 0-2.1-0.9-2.1-2s0.939-2 2.1-2h9.16c1.37-7.71 7.74-10.91 7.74-18.43 0-8.599-7.16-15.57-16-15.57s-16 6.971-16 15.57c0 8.491 8 11.491 8 21.43zM26.65 9c-0.94-0.17-1.65-0.99-1.65-1.97 0-1.099 0.9-2.030 2-2.030 1.59 0 3.52 1.13 5.14 2.73 1.65 1.64 2.86 3.831 2.86 5.27 0 1.1-0.9 2-2 2-0.98 0-1.8-0.71-1.971-1.65-0.5-2.010-2.218-3.85-4.379-4.35z"></path>
</symbol>
<symbol id="icon-settings" viewBox="0 0 48 48">
<title>settings</title>
<path d="M0 41c0 3.87 3.13 7 7 7 1.93 0 3.73-0.73 5-2l12.76-12.77 3.42 3.42c-0.46 1.68-0.020 3.56 1.311 4.899l4.96 4.96c1.979 1.971 5.149 1.99 7.1 0.040s1.931-5.119-0.040-7.1l-4.96-4.96c-1.34-1.33-3.22-1.77-4.899-1.31l-3.42-3.411 2.199-2.199c4.68 1.18 9.84-0.051 13.49-3.62 2.51-2.46 3.891-5.58 4.080-8.81v-0.17c-0.001-1.089-0.901-1.969-2.011-1.969-0.551 0-1.051 0.221-1.421 0.57l-0.589 0.58-2.020 1.98c-1.271 1.24-3.080 1.97-5.030 1.97-1.939 0-3.65-0.85-4.92-2.1-1.25-1.27-2.109-2.99-2.109-4.93 0-1.95 0.729-3.76 1.97-5.030l1.979-2.020 0.58-0.589c0.349-0.37 0.57-0.87 0.57-1.421 0-1.11-0.88-2.010-1.971-2.010h-0.17c-3.229 0.189-6.35 1.57-8.81 4.080-3.569 3.65-4.79 8.811-3.61 13.48l-2.209 2.21-9.23-9.24v-2.53l-6-3-3 3 3 6h2.52l9.24 9.23-12.76 12.77c-1.27 1.27-2 3.070-2 5zM5 40.5c0-1.38 1.12-2.5 2.5-2.5s2.5 1.12 2.5 2.5-1.12 2.5-2.5 2.5-2.5-1.12-2.5-2.5z"></path>
</symbol>
<symbol id="icon-locked" viewBox="0 0 48 48">
<title>locked</title>
<path d="M11 13v7l-3-0c-2.21 0-4 1.79-4 4v20c0 2.21 1.79 4 4 4h32c2.21 0 4-1.79 4-4v-20c0-2.21-1.79-4-4-4h-3v-7c0-7.18-5.82-13-13-13s-13 5.82-13 13zM16 20v-7c0-4.42 3.58-8 8-8s8 3.58 8 8v7h-16zM20 31c0-2.21 1.79-4 4-4s4 1.79 4 4c0 1.41-0.73 2.65-1.83 3.36 0 0 0.391 2.36 0.83 5.14 0 0.83-0.67 1.5-1.5 1.5h-3c-0.83 0-1.5-0.67-1.5-1.5l0.83-5.14c-1.1-0.71-1.83-1.95-1.83-3.36z"></path>
</symbol>
<symbol id="icon-unlocked" viewBox="0 0 48 48">
<title>unlocked</title>
<path d="M4 44c0 2.21 1.79 4 4 4h32c2.21 0 4-1.79 4-4l-0-20c0-2.21-1.79-4-4-4h-24v-7c0-4.42 3.58-8 8-8s8 3.58 8 8v0.5c0 1.38 1.12 2.5 2.5 2.5s2.5-1.12 2.5-2.5v-0.5c0-7.18-5.82-13-13-13s-13 5.82-13 13v7l-3-0c-2.21 0-4 1.79-4 4l0 20zM20 31c0-2.21 1.79-4 4-4s4 1.79 4 4c0 1.41-0.73 2.65-1.83 3.36 0 0 0.391 2.36 0.83 5.14 0 0.83-0.67 1.5-1.5 1.5h-3c-0.83 0-1.5-0.67-1.5-1.5l0.83-5.14c-1.1-0.71-1.83-1.95-1.83-3.36z"></path>
</symbol>
<symbol id="icon-food" viewBox="0 0 48 48">
<title>food</title>
<path d="M23.311 9.681c-2.96 2.96-2.271 6.81-3.261 10.56l-16.6-16.761c-0.36-0.38-0.88-0.62-1.45-0.62-1.1 0-2 0.89-2 2v0.68c0 6.030 2.601 17.19 10.721 26.13l-9.561 9.551c-1.55 1.549-1.55 4.069 0 5.619 1.55 1.551 4.070 1.551 5.61 0l9.53-9.54 5.7 5.7 4.92-4.47 8.311 8.31c1.539 1.551 4.060 1.551 5.609 0 1.551-1.55 1.551-4.070 0-5.619l-13.151-13.261c3.791-1.040 7.67-0.31 10.631-3.271l8.939-8.939c0.99-0.98 0.99-2.58 0-3.569-0.99-0.991-2.59-0.991-3.57 0l-7.869 7.859c-0.59 0.59-1.551 0.59-2.141 0-0.6-0.59-0.6-1.55 0-2.14l7.86-7.87c0.989-0.98 0.989-2.58 0-3.57-0.99-0.989-2.59-0.989-3.569 0l-7.87 7.86c-0.59 0.6-1.55 0.6-2.14 0-0.59-0.59-0.59-1.551 0-2.14l7.86-7.87c0.99-0.98 0.99-2.58 0-3.57s-2.59-0.99-3.57 0l-8.939 8.941z"></path>
</symbol>
<symbol id="icon-drink" viewBox="0 0 48 48">
<title>drink</title>
<path d="M0 33.85c0 5.61 4.54 10.15 10.15 10.15h16.7c5.61 0 10.15-4.54 10.15-10.15v-2.030c4.13-3.14 11-5.43 11-11.82 0-4.42-3.58-8-8-8-1.061 0-2.070 0.2-3 0.58v-3.58c0-2.21-1.79-4-4-4h-29c-2.21 0-4 1.79-4 4v24.85zM37 26.1v-6.1c0-1.66 1.34-3 3-3s3 1.34 3 3c0 3.090-3.12 4.29-6 6.1zM9 12v20c0 1.1-0.9 2-2 2s-2-0.9-2-2l-0-20c0-1.1 0.9-2 2-2s2 0.9 2 2z"></path>
</symbol>
<symbol id="icon-mug" viewBox="0 0 48 48">
<title>mug</title>
<path d="M37 36.42c0.93 0.37 1.939 0.58 3 0.58 4.42 0 8-3.58 8-8v-15c0-4.42-3.58-8-8-8-1.061 0-2.070 0.21-3 0.58v-2.58c0-2.21-1.79-4-4-4h-29c-2.21 0-4 1.79-4 4v33.85c0 5.61 4.54 10.15 10.15 10.15h16.7c5.61 0 10.15-4.54 10.15-10.15v-1.43zM9 7v29c0 1.1-0.9 2-2 2s-2-0.9-2-2l-0-29c0-1.1 0.9-2 2-2s2 0.9 2 2zM43 29c0 1.66-1.34 3-3 3s-3-1.34-3-3v-15c0-1.66 1.34-3 3-3s3 1.34 3 3v15z"></path>
</symbol>
<symbol id="icon-cup" viewBox="0 0 48 48">
<title>cup</title>
<path d="M6 16.5c0 8.82 6.52 16.11 15 17.32v7.18c0 1.1-0.9 2-2 2h-5.5c-1.38 0-2.5 1.12-2.5 2.5s1.12 2.5 2.5 2.5h20c1.38 0 2.5-1.12 2.5-2.5s-1.12-2.5-2.5-2.5h-5.5c-1.1 0-2-0.9-2-2v-7.18c8.48-1.21 15-8.5 15-17.32l-0-12.5c0-2.21-1.79-4-4-4h-27c-2.21 0-4 1.79-4 4v12.5zM13.2 5h20.6c1.22 0 2.2 0.98 2.2 2.2v5.6c0 1.22-0.98 2.2-2.2 2.2h-20.6c-1.22 0-2.2-0.98-2.2-2.2v-5.6c0-1.22 0.98-2.2 2.2-2.2z"></path>
</symbol>
<symbol id="icon-drink1" viewBox="0 0 48 48">
<title>drink1</title>
<path d="M16 30v11c0 1.1-0.9 2-2 2l-5.5 0c-1.38 0-2.5 1.12-2.5 2.5s1.12 2.5 2.5 2.5h20c1.38 0 2.5-1.12 2.5-2.5s-1.12-2.5-2.5-2.5h-5.5c-1.1 0-2-0.9-2-2v-11l8.090-8.189c1.96 1.378 4.34 2.189 6.91 2.189 6.63 0 12-5.37 12-12s-5.37-12-12-12c-6.29 0-11.45 4.84-11.96 11h-22.060c-1.090 0-1.98 0.9-1.98 2 0 0.561 0.23 1.070 0.6 1.431l15.4 15.569zM32.7 18.181l3.72-3.771c0.359-0.36 0.58-0.86 0.58-1.41 0-1.1-0.891-2-1.98-2h-5.95c0.491-3.39 3.4-6 6.931-6 3.87 0 7 3.13 7 7s-3.13 7-7 7c-1.19-0-2.321-0.3-3.301-0.819z"></path>
</symbol>
<symbol id="icon-lollipop" viewBox="0 0 48 48">
<title>lollipop</title>
<path d="M21 34.82v10.68c0 1.38 1.12 2.5 2.5 2.5s2.5-1.12 2.5-2.5l-0-10.68c8.48-1.21 15-8.5 15-17.32 0-9.67-7.83-17.5-17.5-17.5s-17.5 7.83-17.5 17.5c0 8.82 6.52 16.11 15 17.32zM25 19.41c0.939-1.57 0.1-3.189-1.78-3.189-1.94 0-2.84 1.719-2.84 4.029 0 2.25 2.030 5.189 4.62 5.189 4.38 0 7.5-3.5 7.5-7.439 0-5.439-4.37-9.47-9.5-9.47-6.060 0-9.75 4.72-9.75 10.47 0 1.34 0.020 2.8 0.4 4.74 0.29 1.449-1.26 1.59-1.65 0.63-0.69-1.681-1.44-4.37-1.44-6.37 0-7.811 5.25-13 12.44-13 6.88 0 13 5.689 13 13 0 4.75-3.5 11-10.439 11-5.431 0-9.281-3.5-9.281-9 0-3.75 2.56-7.5 7.25-7.5 3.72 0 5.47 3.471 5.47 5.12 0 0.7-0.141 2.46-1.189 3.38-1.221 1.061-3.531-0.16-2.811-1.59z"></path>
</symbol>
<symbol id="icon-lab" viewBox="0 0 48 48">
<title>lab</title>
<path d="M17 19.37l-16.22 22.25c-0.49 0.67-0.78 1.49-0.78 2.38 0 2.21 1.79 4 4 4h40c2.21 0 4-1.79 4-4 0-0.89-0.29-1.71-0.779-2.38l-16.221-22.25v-14.37h0.5c1.38 0 2.5-1.12 2.5-2.5s-1.12-2.5-2.5-2.5h-15c-1.38 0-2.5 1.12-2.5 2.5s1.12 2.5 2.5 2.5h0.5v14.37zM22 5h4v15l7 10h-18l7-10v-15z"></path>
</symbol>
<symbol id="icon-star" viewBox="0 0 48 48">
<title>star</title>
<path d="M24 1c-0.891 0-1.63 0.6-1.86 1.42l-4.72 14.58h-15.5c-1.070 0-1.92 0.931-1.92 2.010 0 0.66 0.33 1.25 0.83 1.601 0.31 0.21 12.52 9.13 12.52 9.13s-4.689 14.4-4.78 14.63c-0.070 0.209-0.12 0.44-0.12 0.679 0 1.080 0.869 1.95 1.939 1.95 0.41 0 0.79-0.13 1.11-0.35l12.501-9.1c0 0 12.22 8.9 12.5 9.101 0.319 0.22 0.7 0.35 1.109 0.35 1.070 0 1.94-0.88 1.94-1.95 0-0.239-0.050-0.47-0.12-0.68-0.090-0.229-4.779-14.63-4.779-14.63s12.209-8.92 12.52-9.13c0.5-0.351 0.83-0.941 0.83-1.611 0-1.069-0.83-2-1.9-2l-15.5-0-4.74-14.58c-0.23-0.82-0.97-1.42-1.86-1.42z"></path>
</symbol>
<symbol id="icon-heart" viewBox="0 0 48 48">
<title>heart</title>
<path d="M24 9.203c-1-3.89-6.080-6.2-10-6.2-7.73 0-14 6-14 14 0 15 14.26 19 22 28 0.069 0.1 0.15 0.181 0.24 0.27 0.979 0.971 2.56 0.971 3.539 0 0.091-0.089 0.15-0.17 0.221-0.27 7.75-9.020 22-12.939 22-28 0-8-6.27-14-14-14-3.92 0-9 2.31-10 6.2zM34.65 12.003c-0.94-0.17-1.65-0.99-1.65-1.97 0-1.1 0.9-2.030 2-2.030 1.59 0 3.52 1.13 5.14 2.73 1.65 1.64 2.86 3.83 2.86 5.27 0 1.1-0.9 2-2 2-0.98 0-1.8-0.71-1.971-1.65-0.5-2.010-2.218-3.85-4.379-4.35z"></path>
</symbol>
<symbol id="icon-cup1" viewBox="0 0 48 48">
<title>cup1</title>
<path d="M11 1c-0.81-0.5-1.94-1-3-1-4.42 0-8 3.61-8 8.070 0 6.45 6.87 8.75 11 11.93v1.5c0 6.050 4.29 11.090 10 12.25v7.25c0 1.1-0.9 2-2 2h-5.5c-1.38 0-2.5 1.12-2.5 2.5s1.12 2.5 2.5 2.5h20c1.38 0 2.5-1.12 2.5-2.5s-1.12-2.5-2.5-2.5h-5.5c-1.1 0-2-0.9-2-2v-7.25c5.71-1.16 10-6.2 10-12.25l-0-1.5c4.13-3.18 11-5.48 11-11.93 0-4.46-3.58-8.070-8-8.070-1.061 0-2.189 0.5-3 1h-25zM20 8v12c0 1.1-0.9 2-2 2s-2-0.9-2-2v-12c0-1.1 0.9-2 2-2s2 0.9 2 2zM5 8.070c0-1.67 1.34-3.030 3-3.030s3 1.36 3 3.030v6.15c-2.88-1.82-6-3.031-6-6.15zM42 8.070c0 3.119-3.12 4.33-6 6.15v-6.15c0-1.67 1.34-3.030 3-3.030s3 1.36 3 3.030z"></path>
</symbol>
<symbol id="icon-scissors" viewBox="0 0 48 48">
<title>scissors</title>
<path d="M8.998 22.127h7.45c1.11 0 2 0.9 2 2 0 0.541-0.21 1.031-0.56 1.391l0.010 0.020-5.1 5.1c-3.52 3.521-3.52 9.211 0 12.73 3.51 3.51 9.21 3.51 12.729 0 3.511-3.52 3.511-9.209 0-12.73-1.020-1.010-2.219-1.74-3.489-2.17l1.34-1.34h17.12c4.080 0 7.4-3.469 7.5-7.799 0-0.070 0.010-0.13 0-0.2-0.1-1.12-1.050-2-2.2-2h-12.42l8.97-8.97c0.82-0.82 0.871-2.11 0.15-2.97-0.050-0.061-0.1-0.101-0.15-0.15-3.119-2.979-7.93-3.090-10.81-0.21l-12.3 12.3h-2.18c0.6-1.2 0.94-2.561 0.94-4 0-4.97-4.030-9-9-9s-9 4.030-9 9c0 4.969 4.030 8.998 9 8.998zM12.998 13.127c0 2.21-1.79 4-4 4s-4-1.79-4-4 1.79-4 4-4 4 1.79 4 4zM21.988 34.178c1.56 1.561 1.56 4.090 0 5.65-1.56 1.568-4.090 1.568-5.66 0-1.56-1.561-1.56-4.090 0-5.65 1.57-1.571 4.1-1.571 5.66 0z"></path>
</symbol>
<symbol id="icon-lightning" viewBox="0 0 48 48">
<title>lightning</title>
<path d="M26.89 18l4.020-15.42c0.060-0.189 0.090-0.391 0.090-0.6 0-1.089-0.88-1.98-1.971-1.98-0.619 0-1.17 0.28-1.529 0.73l-20.070 26.030c-0.27 0.34-0.43 0.77-0.43 1.24 0 1.1 0.9 2 2 2h12.109l-4.020 15.42c-0.061 0.19-0.090 0.391-0.090 0.6 0.001 1.090 0.881 1.98 1.971 1.98 0.62 0 1.17-0.279 1.53-0.73l20.069-26.030c0.271-0.34 0.431-0.769 0.431-1.24 0-1.1-0.9-2-2-2h-12.11z"></path>
</symbol>
<symbol id="icon-forkandknife" viewBox="0 0 16 16">
<title>forkandknife</title>
<path d="M7 0c-0.552 0-1 0.447-1 1v5h-1v-5c0-0.553-0.448-1-1-1s-1 0.447-1 1v5h-1v-5c0-0.553-0.448-1-1-1s-1 0.447-1 1v6c0 0.553 0.448 1 1 1h2v7c0 0.553 0.448 1 1 1s1-0.447 1-1v-7h2c0.552 0 1-0.447 1-1v-6c0-0.553-0.448-1-1-1zM14 0c0 0-2 0.645-2 3v2c0 1.305 0.837 2.403 2 2.816v7.184c0 0.553 0.448 1 1 1s1-0.447 1-1v-15h-2z"></path>
</symbol>
<symbol id="icon-forkandspoon" viewBox="0 0 16 16">
<title>Twoja dieta</title>
<path d="M7 0c-0.552 0-1 0.447-1 1v5h-1v-5c0-0.553-0.448-1-1-1s-1 0.447-1 1v5h-1v-5c0-0.553-0.448-1-1-1s-1 0.447-1 1v6c0 0.553 0.448 1 1 1h2v7c0 0.553 0.448 1 1 1s1-0.447 1-1v-7h2c0.552 0 1-0.447 1-1v-6c0-0.553-0.448-1-1-1zM13 0c-1.657 0-3 1.343-3 3 0 1.305 0.837 2.403 2 2.816v9.184c0 0.553 0.448 1 1 1s1-0.447 1-1v-9.184c1.163-0.413 2-1.512 2-2.816 0-1.657-1.343-3-3-3z"></path>
</symbol>
<symbol id="icon-lift" viewBox="0 0 16 16">
<title>lift</title>
<path d="M16 7v2h-2v2h-2v2h-2v-4h-4v4h-2v-2h-2v-2h-2v-2h2v-2h2v-2h2v4h4v-4h2v2h2v2h2z"></path>
</symbol>
<symbol id="icon-camera" viewBox="0 0 16 16">
<title>camera</title>
<path d="M4.75 9.5c0 1.795 1.455 3.25 3.25 3.25s3.25-1.455 3.25-3.25-1.455-3.25-3.25-3.25-3.25 1.455-3.25 3.25zM15 4h-3.5c-0.25-1-0.5-2-1.5-2h-4c-1 0-1.25 1-1.5 2h-3.5c-0.55 0-1 0.45-1 1v9c0 0.55 0.45 1 1 1h14c0.55 0 1-0.45 1-1v-9c0-0.55-0.45-1-1-1zM8 13.938c-2.451 0-4.438-1.987-4.438-4.438s1.987-4.438 4.438-4.438c2.451 0 4.438 1.987 4.438 4.438s-1.987 4.438-4.438 4.438zM15 7h-2v-1h2v1z"></path>
</symbol>
<symbol id="icon-video-camera" viewBox="0 0 16 16">
<title>video-camera</title>
<path d="M6 4.5c0-1.381 1.119-2.5 2.5-2.5s2.5 1.119 2.5 2.5c0 1.381-1.119 2.5-2.5 2.5s-2.5-1.119-2.5-2.5zM0 4.5c0-1.381 1.119-2.5 2.5-2.5s2.5 1.119 2.5 2.5c0 1.381-1.119 2.5-2.5 2.5s-2.5-1.119-2.5-2.5zM12 9.5v-1.5c0-0.55-0.45-1-1-1h-10c-0.55 0-1 0.45-1 1v5c0 0.55 0.45 1 1 1h10c0.55 0 1-0.45 1-1v-1.5l4 2.5v-7l-4 2.5zM10 12h-8v-3h8v3z"></path>
</symbol>
<symbol id="icon-accessibility" viewBox="0 0 16 16">
<title>Treningi</title>
<path d="M6.5 1.5c0-0.828 0.672-1.5 1.5-1.5s1.5 0.672 1.5 1.5c0 0.828-0.672 1.5-1.5 1.5s-1.5-0.672-1.5-1.5z"></path>
<path d="M10 5l5.15-2.221-0.371-0.929-6.279 2.15h-1l-6.279-2.15-0.371 0.929 5.15 2.221v4l-2.051 6.634 0.935 0.355 2.902-6.489h0.429l2.902 6.489 0.935-0.355-2.051-6.634z"></path>
</symbol>
<symbol id="icon-power" viewBox="0 0 16 16">
<title>power</title>
<path d="M6 0l-6 8h6l-4 8 14-10h-8l6-6z"></path>
</symbol>
<symbol id="icon-directions_run" viewBox="0 0 24 24">
<title>directions_run</title>
<path d="M9.891 19.359l-6.984-1.359 0.375-2.016 4.922 0.984 1.594-8.109-1.828 0.703v3.422h-1.969v-4.688l5.203-2.203c0.281 0 0.516-0.094 0.797-0.094 0.703 0 1.266 0.375 1.688 0.984l0.984 1.594c0.797 1.406 2.391 2.391 4.313 2.391v2.016c-2.203 0-4.172-0.984-5.484-2.484l-0.609 3 2.109 1.969v7.5h-2.016v-6l-2.109-1.969zM13.5 5.484c-1.078 0-2.016-0.938-2.016-2.016s0.938-1.969 2.016-1.969 1.969 0.891 1.969 1.969-0.891 2.016-1.969 2.016z"></path>
</symbol>
<symbol id="icon-restaurant" viewBox="0 0 24 24">
<title>restaurant</title>
<path d="M15.984 6c0-1.781 2.25-3.984 5.016-3.984v19.969h-2.484v-7.969h-2.531v-8.016zM11.016 9v-6.984h1.969v6.984c0 2.109-1.641 3.844-3.75 3.984v9h-2.484v-9c-2.109-0.141-3.75-1.875-3.75-3.984v-6.984h2.016v6.984h1.969v-6.984h2.016v6.984h2.016z"></path>
</symbol>
<symbol id="icon-asterisk" viewBox="0 0 26 28">
<title>asterisk</title>
<path d="M23.156 16.406c0.953 0.547 1.281 1.781 0.734 2.734l-1 1.719c-0.547 0.953-1.781 1.281-2.734 0.734l-4.156-2.391v4.797c0 1.094-0.906 2-2 2h-2c-1.094 0-2-0.906-2-2v-4.797l-4.156 2.391c-0.953 0.547-2.187 0.219-2.734-0.734l-1-1.719c-0.547-0.953-0.219-2.188 0.734-2.734l4.156-2.406-4.156-2.406c-0.953-0.547-1.281-1.781-0.734-2.734l1-1.719c0.547-0.953 1.781-1.281 2.734-0.734l4.156 2.391v-4.797c0-1.094 0.906-2 2-2h2c1.094 0 2 0.906 2 2v4.797l4.156-2.391c0.953-0.547 2.188-0.219 2.734 0.734l1 1.719c0.547 0.953 0.219 2.188-0.734 2.734l-4.156 2.406z"></path>
</symbol>
<symbol id="icon-plus" viewBox="0 0 22 28">
<title>plus</title>
<path d="M22 11.5v3c0 0.828-0.672 1.5-1.5 1.5h-6.5v6.5c0 0.828-0.672 1.5-1.5 1.5h-3c-0.828 0-1.5-0.672-1.5-1.5v-6.5h-6.5c-0.828 0-1.5-0.672-1.5-1.5v-3c0-0.828 0.672-1.5 1.5-1.5h6.5v-6.5c0-0.828 0.672-1.5 1.5-1.5h3c0.828 0 1.5 0.672 1.5 1.5v6.5h6.5c0.828 0 1.5 0.672 1.5 1.5z"></path>
</symbol>
<symbol id="icon-question" viewBox="0 0 17 28">
<title>question</title>
<path d="M11 19.625v3.75c0 0.344-0.281 0.625-0.625 0.625h-3.75c-0.344 0-0.625-0.281-0.625-0.625v-3.75c0-0.344 0.281-0.625 0.625-0.625h3.75c0.344 0 0.625 0.281 0.625 0.625zM15.937 10.25c0 2.969-2.016 4.109-3.5 4.937-0.922 0.531-1.5 1.609-1.5 2.063v0c0 0.344-0.266 0.75-0.625 0.75h-3.75c-0.344 0-0.562-0.531-0.562-0.875v-0.703c0-1.891 1.875-3.516 3.25-4.141 1.203-0.547 1.703-1.062 1.703-2.063 0-0.875-1.141-1.656-2.406-1.656-0.703 0-1.344 0.219-1.687 0.453-0.375 0.266-0.75 0.641-1.672 1.797-0.125 0.156-0.313 0.25-0.484 0.25-0.141 0-0.266-0.047-0.391-0.125l-2.562-1.953c-0.266-0.203-0.328-0.547-0.156-0.828 1.687-2.797 4.062-4.156 7.25-4.156 3.344 0 7.094 2.672 7.094 6.25z"></path>
</symbol>
<symbol id="icon-minus" viewBox="0 0 22 28">
<title>minus</title>
<path d="M22 11.5v3c0 0.828-0.672 1.5-1.5 1.5h-19c-0.828 0-1.5-0.672-1.5-1.5v-3c0-0.828 0.672-1.5 1.5-1.5h19c0.828 0 1.5 0.672 1.5 1.5z"></path>
</symbol>
<symbol id="icon-glass" viewBox="0 0 28 28">
<title>glass</title>
<path d="M26.547 2.906c0 0.453-0.359 0.906-0.672 1.219l-9.875 9.875v12h5c0.547 0 1 0.453 1 1s-0.453 1-1 1h-14c-0.547 0-1-0.453-1-1s0.453-1 1-1h5v-12l-9.875-9.875c-0.313-0.313-0.672-0.766-0.672-1.219 0-0.766 0.969-0.906 1.547-0.906h22c0.578 0 1.547 0.141 1.547 0.906z"></path>
</symbol>
<symbol id="icon-search" viewBox="0 0 26 28">
<title>search</title>
<path d="M18 13c0-3.859-3.141-7-7-7s-7 3.141-7 7 3.141 7 7 7 7-3.141 7-7zM26 26c0 1.094-0.906 2-2 2-0.531 0-1.047-0.219-1.406-0.594l-5.359-5.344c-1.828 1.266-4.016 1.937-6.234 1.937-6.078 0-11-4.922-11-11s4.922-11 11-11 11 4.922 11 11c0 2.219-0.672 4.406-1.937 6.234l5.359 5.359c0.359 0.359 0.578 0.875 0.578 1.406z"></path>
</symbol>
<symbol id="icon-envelope-o" viewBox="0 0 28 28">
<title>envelope-o</title>
<path d="M26 23.5v-12c-0.328 0.375-0.688 0.719-1.078 1.031-2.234 1.719-4.484 3.469-6.656 5.281-1.172 0.984-2.625 2.188-4.25 2.188h-0.031c-1.625 0-3.078-1.203-4.25-2.188-2.172-1.813-4.422-3.563-6.656-5.281-0.391-0.313-0.75-0.656-1.078-1.031v12c0 0.266 0.234 0.5 0.5 0.5h23c0.266 0 0.5-0.234 0.5-0.5zM26 7.078c0-0.391 0.094-1.078-0.5-1.078h-23c-0.266 0-0.5 0.234-0.5 0.5 0 1.781 0.891 3.328 2.297 4.438 2.094 1.641 4.188 3.297 6.266 4.953 0.828 0.672 2.328 2.109 3.422 2.109h0.031c1.094 0 2.594-1.437 3.422-2.109 2.078-1.656 4.172-3.313 6.266-4.953 1.016-0.797 2.297-2.531 2.297-3.859zM28 6.5v17c0 1.375-1.125 2.5-2.5 2.5h-23c-1.375 0-2.5-1.125-2.5-2.5v-17c0-1.375 1.125-2.5 2.5-2.5h23c1.375 0 2.5 1.125 2.5 2.5z"></path>
</symbol>
<symbol id="icon-heart1" viewBox="0 0 28 28">
<title>heart1</title>
<path d="M14 26c-0.25 0-0.5-0.094-0.688-0.281l-9.75-9.406c-0.125-0.109-3.563-3.25-3.563-7 0-4.578 2.797-7.313 7.469-7.313 2.734 0 5.297 2.156 6.531 3.375 1.234-1.219 3.797-3.375 6.531-3.375 4.672 0 7.469 2.734 7.469 7.313 0 3.75-3.437 6.891-3.578 7.031l-9.734 9.375c-0.187 0.187-0.438 0.281-0.688 0.281z"></path>
</symbol>
<symbol id="icon-star1" viewBox="0 0 26 28">
<title>star1</title>
<path d="M26 10.109c0 0.281-0.203 0.547-0.406 0.75l-5.672 5.531 1.344 7.812c0.016 0.109 0.016 0.203 0.016 0.313 0 0.406-0.187 0.781-0.641 0.781-0.219 0-0.438-0.078-0.625-0.187l-7.016-3.687-7.016 3.687c-0.203 0.109-0.406 0.187-0.625 0.187-0.453 0-0.656-0.375-0.656-0.781 0-0.109 0.016-0.203 0.031-0.313l1.344-7.812-5.688-5.531c-0.187-0.203-0.391-0.469-0.391-0.75 0-0.469 0.484-0.656 0.875-0.719l7.844-1.141 3.516-7.109c0.141-0.297 0.406-0.641 0.766-0.641s0.625 0.344 0.766 0.641l3.516 7.109 7.844 1.141c0.375 0.063 0.875 0.25 0.875 0.719z"></path>
</symbol>
<symbol id="icon-star-o" viewBox="0 0 26 28">
<title>star-o</title>
<path d="M17.766 15.687l4.781-4.641-6.594-0.969-2.953-5.969-2.953 5.969-6.594 0.969 4.781 4.641-1.141 6.578 5.906-3.109 5.891 3.109zM26 10.109c0 0.281-0.203 0.547-0.406 0.75l-5.672 5.531 1.344 7.812c0.016 0.109 0.016 0.203 0.016 0.313 0 0.422-0.187 0.781-0.641 0.781-0.219 0-0.438-0.078-0.625-0.187l-7.016-3.687-7.016 3.687c-0.203 0.109-0.406 0.187-0.625 0.187-0.453 0-0.656-0.375-0.656-0.781 0-0.109 0.016-0.203 0.031-0.313l1.344-7.812-5.688-5.531c-0.187-0.203-0.391-0.469-0.391-0.75 0-0.469 0.484-0.656 0.875-0.719l7.844-1.141 3.516-7.109c0.141-0.297 0.406-0.641 0.766-0.641s0.625 0.344 0.766 0.641l3.516 7.109 7.844 1.141c0.375 0.063 0.875 0.25 0.875 0.719z"></path>
</symbol>
<symbol id="icon-user3" viewBox="0 0 20 28">
<title>user3</title>
<path d="M20 21.859c0 2.281-1.5 4.141-3.328 4.141h-13.344c-1.828 0-3.328-1.859-3.328-4.141 0-4.109 1.016-8.859 5.109-8.859 1.266 1.234 2.984 2 4.891 2s3.625-0.766 4.891-2c4.094 0 5.109 4.75 5.109 8.859zM16 8c0 3.313-2.688 6-6 6s-6-2.688-6-6 2.688-6 6-6 6 2.688 6 6z"></path>
</symbol>
<symbol id="icon-check" viewBox="0 0 28 28">
<title>check</title>
<path d="M26.109 8.844c0 0.391-0.156 0.781-0.438 1.062l-13.438 13.438c-0.281 0.281-0.672 0.438-1.062 0.438s-0.781-0.156-1.062-0.438l-7.781-7.781c-0.281-0.281-0.438-0.672-0.438-1.062s0.156-0.781 0.438-1.062l2.125-2.125c0.281-0.281 0.672-0.438 1.062-0.438s0.781 0.156 1.062 0.438l4.594 4.609 10.25-10.266c0.281-0.281 0.672-0.438 1.062-0.438s0.781 0.156 1.062 0.438l2.125 2.125c0.281 0.281 0.438 0.672 0.438 1.062z"></path>
</symbol>
<symbol id="icon-close" viewBox="0 0 22 28">
<title>close</title>
<path d="M20.281 20.656c0 0.391-0.156 0.781-0.438 1.062l-2.125 2.125c-0.281 0.281-0.672 0.438-1.062 0.438s-0.781-0.156-1.062-0.438l-4.594-4.594-4.594 4.594c-0.281 0.281-0.672 0.438-1.062 0.438s-0.781-0.156-1.062-0.438l-2.125-2.125c-0.281-0.281-0.438-0.672-0.438-1.062s0.156-0.781 0.438-1.062l4.594-4.594-4.594-4.594c-0.281-0.281-0.438-0.672-0.438-1.062s0.156-0.781 0.438-1.062l2.125-2.125c0.281-0.281 0.672-0.438 1.062-0.438s0.781 0.156 1.062 0.438l4.594 4.594 4.594-4.594c0.281-0.281 0.672-0.438 1.062-0.438s0.781 0.156 1.062 0.438l2.125 2.125c0.281 0.281 0.438 0.672 0.438 1.062s-0.156 0.781-0.438 1.062l-4.594 4.594 4.594 4.594c0.281 0.281 0.438 0.672 0.438 1.062z"></path>
</symbol>
<symbol id="icon-search-plus" viewBox="0 0 26 28">
<title>search-plus</title>
<path d="M16 12.5v1c0 0.266-0.234 0.5-0.5 0.5h-3.5v3.5c0 0.266-0.234 0.5-0.5 0.5h-1c-0.266 0-0.5-0.234-0.5-0.5v-3.5h-3.5c-0.266 0-0.5-0.234-0.5-0.5v-1c0-0.266 0.234-0.5 0.5-0.5h3.5v-3.5c0-0.266 0.234-0.5 0.5-0.5h1c0.266 0 0.5 0.234 0.5 0.5v3.5h3.5c0.266 0 0.5 0.234 0.5 0.5zM18 13c0-3.859-3.141-7-7-7s-7 3.141-7 7 3.141 7 7 7 7-3.141 7-7zM26 26c0 1.109-0.891 2-2 2-0.531 0-1.047-0.219-1.406-0.594l-5.359-5.344c-1.828 1.266-4.016 1.937-6.234 1.937-6.078 0-11-4.922-11-11s4.922-11 11-11 11 4.922 11 11c0 2.219-0.672 4.406-1.937 6.234l5.359 5.359c0.359 0.359 0.578 0.875 0.578 1.406z"></path>
</symbol>
<symbol id="icon-search-minus" viewBox="0 0 26 28">
<title>search-minus</title>
<path d="M16 12.5v1c0 0.266-0.234 0.5-0.5 0.5h-9c-0.266 0-0.5-0.234-0.5-0.5v-1c0-0.266 0.234-0.5 0.5-0.5h9c0.266 0 0.5 0.234 0.5 0.5zM18 13c0-3.859-3.141-7-7-7s-7 3.141-7 7 3.141 7 7 7 7-3.141 7-7zM26 26c0 1.109-0.891 2-2 2-0.531 0-1.047-0.219-1.406-0.594l-5.359-5.344c-1.828 1.266-4.016 1.937-6.234 1.937-6.078 0-11-4.922-11-11s4.922-11 11-11 11 4.922 11 11c0 2.219-0.672 4.406-1.937 6.234l5.359 5.359c0.359 0.359 0.578 0.875 0.578 1.406z"></path>
</symbol>
<symbol id="icon-power-off" viewBox="0 0 24 28">
<title>power-off</title>
<path d="M24 14c0 6.609-5.391 12-12 12s-12-5.391-12-12c0-3.797 1.75-7.297 4.797-9.578 0.891-0.672 2.141-0.5 2.797 0.391 0.672 0.875 0.484 2.141-0.391 2.797-2.031 1.531-3.203 3.859-3.203 6.391 0 4.406 3.594 8 8 8s8-3.594 8-8c0-2.531-1.172-4.859-3.203-6.391-0.875-0.656-1.062-1.922-0.391-2.797 0.656-0.891 1.922-1.062 2.797-0.391 3.047 2.281 4.797 5.781 4.797 9.578zM14 2v10c0 1.094-0.906 2-2 2s-2-0.906-2-2v-10c0-1.094 0.906-2 2-2s2 0.906 2 2z"></path>
</symbol>
<symbol id="icon-signal" viewBox="0 0 28 28">
<title>Twoje cele i wyniki</title>
<path d="M4 22.5v3c0 0.281-0.219 0.5-0.5 0.5h-3c-0.281 0-0.5-0.219-0.5-0.5v-3c0-0.281 0.219-0.5 0.5-0.5h3c0.281 0 0.5 0.219 0.5 0.5zM10 20.5v5c0 0.281-0.219 0.5-0.5 0.5h-3c-0.281 0-0.5-0.219-0.5-0.5v-5c0-0.281 0.219-0.5 0.5-0.5h3c0.281 0 0.5 0.219 0.5 0.5zM16 16.5v9c0 0.281-0.219 0.5-0.5 0.5h-3c-0.281 0-0.5-0.219-0.5-0.5v-9c0-0.281 0.219-0.5 0.5-0.5h3c0.281 0 0.5 0.219 0.5 0.5zM22 10.5v15c0 0.281-0.219 0.5-0.5 0.5h-3c-0.281 0-0.5-0.219-0.5-0.5v-15c0-0.281 0.219-0.5 0.5-0.5h3c0.281 0 0.5 0.219 0.5 0.5zM28 2.5v23c0 0.281-0.219 0.5-0.5 0.5h-3c-0.281 0-0.5-0.219-0.5-0.5v-23c0-0.281 0.219-0.5 0.5-0.5h3c0.281 0 0.5 0.219 0.5 0.5z"></path>
</symbol>
<symbol id="icon-cog" viewBox="0 0 24 28">
<title>cog</title>
<path d="M16 14c0-2.203-1.797-4-4-4s-4 1.797-4 4 1.797 4 4 4 4-1.797 4-4zM24 12.297v3.469c0 0.234-0.187 0.516-0.438 0.562l-2.891 0.438c-0.172 0.5-0.359 0.969-0.609 1.422 0.531 0.766 1.094 1.453 1.672 2.156 0.094 0.109 0.156 0.25 0.156 0.391s-0.047 0.25-0.141 0.359c-0.375 0.5-2.484 2.797-3.016 2.797-0.141 0-0.281-0.063-0.406-0.141l-2.156-1.687c-0.453 0.234-0.938 0.438-1.422 0.594-0.109 0.953-0.203 1.969-0.453 2.906-0.063 0.25-0.281 0.438-0.562 0.438h-3.469c-0.281 0-0.531-0.203-0.562-0.469l-0.438-2.875c-0.484-0.156-0.953-0.344-1.406-0.578l-2.203 1.672c-0.109 0.094-0.25 0.141-0.391 0.141s-0.281-0.063-0.391-0.172c-0.828-0.75-1.922-1.719-2.578-2.625-0.078-0.109-0.109-0.234-0.109-0.359 0-0.141 0.047-0.25 0.125-0.359 0.531-0.719 1.109-1.406 1.641-2.141-0.266-0.5-0.484-1.016-0.641-1.547l-2.859-0.422c-0.266-0.047-0.453-0.297-0.453-0.562v-3.469c0-0.234 0.187-0.516 0.422-0.562l2.906-0.438c0.156-0.5 0.359-0.969 0.609-1.437-0.531-0.75-1.094-1.453-1.672-2.156-0.094-0.109-0.156-0.234-0.156-0.375s0.063-0.25 0.141-0.359c0.375-0.516 2.484-2.797 3.016-2.797 0.141 0 0.281 0.063 0.406 0.156l2.156 1.672c0.453-0.234 0.938-0.438 1.422-0.594 0.109-0.953 0.203-1.969 0.453-2.906 0.063-0.25 0.281-0.438 0.562-0.438h3.469c0.281 0 0.531 0.203 0.562 0.469l0.438 2.875c0.484 0.156 0.953 0.344 1.406 0.578l2.219-1.672c0.094-0.094 0.234-0.141 0.375-0.141s0.281 0.063 0.391 0.156c0.828 0.766 1.922 1.734 2.578 2.656 0.078 0.094 0.109 0.219 0.109 0.344 0 0.141-0.047 0.25-0.125 0.359-0.531 0.719-1.109 1.406-1.641 2.141 0.266 0.5 0.484 1.016 0.641 1.531l2.859 0.438c0.266 0.047 0.453 0.297 0.453 0.562z"></path>
</symbol>
<symbol id="icon-trash-o" viewBox="0 0 22 28">
<title>trash-o</title>
<path d="M8 11.5v9c0 0.281-0.219 0.5-0.5 0.5h-1c-0.281 0-0.5-0.219-0.5-0.5v-9c0-0.281 0.219-0.5 0.5-0.5h1c0.281 0 0.5 0.219 0.5 0.5zM12 11.5v9c0 0.281-0.219 0.5-0.5 0.5h-1c-0.281 0-0.5-0.219-0.5-0.5v-9c0-0.281 0.219-0.5 0.5-0.5h1c0.281 0 0.5 0.219 0.5 0.5zM16 11.5v9c0 0.281-0.219 0.5-0.5 0.5h-1c-0.281 0-0.5-0.219-0.5-0.5v-9c0-0.281 0.219-0.5 0.5-0.5h1c0.281 0 0.5 0.219 0.5 0.5zM18 22.813v-14.812h-14v14.812c0 0.75 0.422 1.188 0.5 1.188h13c0.078 0 0.5-0.438 0.5-1.188zM7.5 6h7l-0.75-1.828c-0.047-0.063-0.187-0.156-0.266-0.172h-4.953c-0.094 0.016-0.219 0.109-0.266 0.172zM22 6.5v1c0 0.281-0.219 0.5-0.5 0.5h-1.5v14.812c0 1.719-1.125 3.187-2.5 3.187h-13c-1.375 0-2.5-1.406-2.5-3.125v-14.875h-1.5c-0.281 0-0.5-0.219-0.5-0.5v-1c0-0.281 0.219-0.5 0.5-0.5h4.828l1.094-2.609c0.313-0.766 1.25-1.391 2.078-1.391h5c0.828 0 1.766 0.625 2.078 1.391l1.094 2.609h4.828c0.281 0 0.5 0.219 0.5 0.5z"></path>
</symbol>
<symbol id="icon-home" viewBox="0 0 26 28">
<title>Domowa</title>
<path d="M22 15.5v7.5c0 0.547-0.453 1-1 1h-6v-6h-4v6h-6c-0.547 0-1-0.453-1-1v-7.5c0-0.031 0.016-0.063 0.016-0.094l8.984-7.406 8.984 7.406c0.016 0.031 0.016 0.063 0.016 0.094zM25.484 14.422l-0.969 1.156c-0.078 0.094-0.203 0.156-0.328 0.172h-0.047c-0.125 0-0.234-0.031-0.328-0.109l-10.813-9.016-10.813 9.016c-0.109 0.078-0.234 0.125-0.375 0.109-0.125-0.016-0.25-0.078-0.328-0.172l-0.969-1.156c-0.172-0.203-0.141-0.531 0.063-0.703l11.234-9.359c0.656-0.547 1.719-0.547 2.375 0l3.813 3.187v-3.047c0-0.281 0.219-0.5 0.5-0.5h3c0.281 0 0.5 0.219 0.5 0.5v6.375l3.422 2.844c0.203 0.172 0.234 0.5 0.063 0.703z"></path>
</symbol>
<symbol id="icon-file-o" viewBox="0 0 24 28">
<title>file-o</title>
<path d="M22.937 5.938c0.578 0.578 1.062 1.734 1.062 2.562v18c0 0.828-0.672 1.5-1.5 1.5h-21c-0.828 0-1.5-0.672-1.5-1.5v-25c0-0.828 0.672-1.5 1.5-1.5h14c0.828 0 1.984 0.484 2.562 1.062zM16 2.125v5.875h5.875c-0.094-0.266-0.234-0.531-0.344-0.641l-4.891-4.891c-0.109-0.109-0.375-0.25-0.641-0.344zM22 26v-16h-6.5c-0.828 0-1.5-0.672-1.5-1.5v-6.5h-12v24h20z"></path>
</symbol>
<symbol id="icon-clock-o" viewBox="0 0 24 28">
<title>clock-o</title>
<path d="M14 8.5v7c0 0.281-0.219 0.5-0.5 0.5h-5c-0.281 0-0.5-0.219-0.5-0.5v-1c0-0.281 0.219-0.5 0.5-0.5h3.5v-5.5c0-0.281 0.219-0.5 0.5-0.5h1c0.281 0 0.5 0.219 0.5 0.5zM20.5 14c0-4.688-3.813-8.5-8.5-8.5s-8.5 3.813-8.5 8.5 3.813 8.5 8.5 8.5 8.5-3.813 8.5-8.5zM24 14c0 6.625-5.375 12-12 12s-12-5.375-12-12 5.375-12 12-12 12 5.375 12 12z"></path>
</symbol>
<symbol id="icon-book" viewBox="0 0 26 28">
<title>book</title>
<path d="M25.609 7.469c0.391 0.562 0.5 1.297 0.281 2.016l-4.297 14.156c-0.391 1.328-1.766 2.359-3.109 2.359h-14.422c-1.594 0-3.297-1.266-3.875-2.891-0.25-0.703-0.25-1.391-0.031-1.984 0.031-0.313 0.094-0.625 0.109-1 0.016-0.25-0.125-0.453-0.094-0.641 0.063-0.375 0.391-0.641 0.641-1.062 0.469-0.781 1-2.047 1.172-2.859 0.078-0.297-0.078-0.641 0-0.906 0.078-0.297 0.375-0.516 0.531-0.797 0.422-0.719 0.969-2.109 1.047-2.844 0.031-0.328-0.125-0.688-0.031-0.938 0.109-0.359 0.453-0.516 0.688-0.828 0.375-0.516 1-2 1.094-2.828 0.031-0.266-0.125-0.531-0.078-0.812 0.063-0.297 0.438-0.609 0.688-0.969 0.656-0.969 0.781-3.109 2.766-2.547l-0.016 0.047c0.266-0.063 0.531-0.141 0.797-0.141h11.891c0.734 0 1.391 0.328 1.781 0.875 0.406 0.562 0.5 1.297 0.281 2.031l-4.281 14.156c-0.734 2.406-1.141 2.938-3.125 2.938h-13.578c-0.203 0-0.453 0.047-0.594 0.234-0.125 0.187-0.141 0.328-0.016 0.672 0.313 0.906 1.391 1.094 2.25 1.094h14.422c0.578 0 1.25-0.328 1.422-0.891l4.688-15.422c0.094-0.297 0.094-0.609 0.078-0.891 0.359 0.141 0.688 0.359 0.922 0.672zM8.984 7.5c-0.094 0.281 0.063 0.5 0.344 0.5h9.5c0.266 0 0.562-0.219 0.656-0.5l0.328-1c0.094-0.281-0.063-0.5-0.344-0.5h-9.5c-0.266 0-0.562 0.219-0.656 0.5zM7.688 11.5c-0.094 0.281 0.063 0.5 0.344 0.5h9.5c0.266 0 0.562-0.219 0.656-0.5l0.328-1c0.094-0.281-0.063-0.5-0.344-0.5h-9.5c-0.266 0-0.562 0.219-0.656 0.5z"></path>
</symbol>
<symbol id="icon-bookmark" viewBox="0 0 20 28">
<title>bookmark</title>
<path d="M18.188 2c0.234 0 0.469 0.047 0.688 0.141 0.688 0.266 1.125 0.906 1.125 1.609v20.141c0 0.703-0.438 1.344-1.125 1.609-0.219 0.094-0.453 0.125-0.688 0.125-0.484 0-0.938-0.172-1.297-0.5l-6.891-6.625-6.891 6.625c-0.359 0.328-0.812 0.516-1.297 0.516-0.234 0-0.469-0.047-0.688-0.141-0.688-0.266-1.125-0.906-1.125-1.609v-20.141c0-0.703 0.438-1.344 1.125-1.609 0.219-0.094 0.453-0.141 0.688-0.141h16.375z"></path>
</symbol>
<symbol id="icon-pencil1" viewBox="0 0 24 28">
<title>pencil1</title>
<path d="M5.672 24l1.422-1.422-3.672-3.672-1.422 1.422v1.672h2v2h1.672zM13.844 9.5c0-0.203-0.141-0.344-0.344-0.344-0.094 0-0.187 0.031-0.266 0.109l-8.469 8.469c-0.078 0.078-0.109 0.172-0.109 0.266 0 0.203 0.141 0.344 0.344 0.344 0.094 0 0.187-0.031 0.266-0.109l8.469-8.469c0.078-0.078 0.109-0.172 0.109-0.266zM13 6.5l6.5 6.5-13 13h-6.5v-6.5zM23.672 8c0 0.531-0.219 1.047-0.578 1.406l-2.594 2.594-6.5-6.5 2.594-2.578c0.359-0.375 0.875-0.594 1.406-0.594s1.047 0.219 1.422 0.594l3.672 3.656c0.359 0.375 0.578 0.891 0.578 1.422z"></path>
</symbol>
<symbol id="icon-map-marker" viewBox="0 0 16 28">
<title>map-marker</title>
<path d="M12 10c0-2.203-1.797-4-4-4s-4 1.797-4 4 1.797 4 4 4 4-1.797 4-4zM16 10c0 0.953-0.109 1.937-0.516 2.797l-5.688 12.094c-0.328 0.688-1.047 1.109-1.797 1.109s-1.469-0.422-1.781-1.109l-5.703-12.094c-0.406-0.859-0.516-1.844-0.516-2.797 0-4.422 3.578-8 8-8s8 3.578 8 8z"></path>
</symbol>
<symbol id="icon-check-square-o" viewBox="0 0 26 28">
<title>check-square-o</title>
<path d="M22 14.531v4.969c0 2.484-2.016 4.5-4.5 4.5h-13c-2.484 0-4.5-2.016-4.5-4.5v-13c0-2.484 2.016-4.5 4.5-4.5h13c0.625 0 1.25 0.125 1.828 0.391 0.141 0.063 0.25 0.203 0.281 0.359 0.031 0.172-0.016 0.328-0.141 0.453l-0.766 0.766c-0.094 0.094-0.234 0.156-0.359 0.156-0.047 0-0.094-0.016-0.141-0.031-0.234-0.063-0.469-0.094-0.703-0.094h-13c-1.375 0-2.5 1.125-2.5 2.5v13c0 1.375 1.125 2.5 2.5 2.5h13c1.375 0 2.5-1.125 2.5-2.5v-3.969c0-0.125 0.047-0.25 0.141-0.344l1-1c0.109-0.109 0.234-0.156 0.359-0.156 0.063 0 0.125 0.016 0.187 0.047 0.187 0.078 0.313 0.25 0.313 0.453zM25.609 6.891l-12.719 12.719c-0.5 0.5-1.281 0.5-1.781 0l-6.719-6.719c-0.5-0.5-0.5-1.281 0-1.781l1.719-1.719c0.5-0.5 1.281-0.5 1.781 0l4.109 4.109 10.109-10.109c0.5-0.5 1.281-0.5 1.781 0l1.719 1.719c0.5 0.5 0.5 1.281 0 1.781z"></path>
</symbol>
<symbol id="icon-question-circle" viewBox="0 0 24 28">
<title>question-circle</title>
<path d="M14 21.5v-3c0-0.281-0.219-0.5-0.5-0.5h-3c-0.281 0-0.5 0.219-0.5 0.5v3c0 0.281 0.219 0.5 0.5 0.5h3c0.281 0 0.5-0.219 0.5-0.5zM18 11c0-2.859-3-5-5.688-5-2.547 0-4.453 1.094-5.797 3.328-0.141 0.219-0.078 0.5 0.125 0.656l2.063 1.563c0.078 0.063 0.187 0.094 0.297 0.094 0.141 0 0.297-0.063 0.391-0.187 0.734-0.938 1.047-1.219 1.344-1.437 0.266-0.187 0.781-0.375 1.344-0.375 1 0 1.922 0.641 1.922 1.328 0 0.812-0.422 1.219-1.375 1.656-1.109 0.5-2.625 1.797-2.625 3.313v0.562c0 0.281 0.219 0.5 0.5 0.5h3c0.281 0 0.5-0.219 0.5-0.5v0c0-0.359 0.453-1.125 1.188-1.547 1.188-0.672 2.812-1.578 2.812-3.953zM24 14c0 6.625-5.375 12-12 12s-12-5.375-12-12 5.375-12 12-12 12 5.375 12 12z"></path>
</symbol>
<symbol id="icon-info-circle" viewBox="0 0 24 28">
<title>info-circle</title>
<path d="M16 21.5v-2.5c0-0.281-0.219-0.5-0.5-0.5h-1.5v-8c0-0.281-0.219-0.5-0.5-0.5h-5c-0.281 0-0.5 0.219-0.5 0.5v2.5c0 0.281 0.219 0.5 0.5 0.5h1.5v5h-1.5c-0.281 0-0.5 0.219-0.5 0.5v2.5c0 0.281 0.219 0.5 0.5 0.5h7c0.281 0 0.5-0.219 0.5-0.5zM14 7.5v-2.5c0-0.281-0.219-0.5-0.5-0.5h-3c-0.281 0-0.5 0.219-0.5 0.5v2.5c0 0.281 0.219 0.5 0.5 0.5h3c0.281 0 0.5-0.219 0.5-0.5zM24 14c0 6.625-5.375 12-12 12s-12-5.375-12-12 5.375-12 12-12 12 5.375 12 12z"></path>
</symbol>
<symbol id="icon-times-circle-o" viewBox="0 0 24 28">
<title>times-circle-o</title>
<path d="M17.141 16.859l-2.281 2.281c-0.203 0.203-0.516 0.203-0.719 0l-2.141-2.141-2.141 2.141c-0.203 0.203-0.516 0.203-0.719 0l-2.281-2.281c-0.203-0.203-0.203-0.516 0-0.719l2.141-2.141-2.141-2.141c-0.203-0.203-0.203-0.516 0-0.719l2.281-2.281c0.203-0.203 0.516-0.203 0.719 0l2.141 2.141 2.141-2.141c0.203-0.203 0.516-0.203 0.719 0l2.281 2.281c0.203 0.203 0.203 0.516 0 0.719l-2.141 2.141 2.141 2.141c0.203 0.203 0.203 0.516 0 0.719zM20.5 14c0-4.688-3.813-8.5-8.5-8.5s-8.5 3.813-8.5 8.5 3.813 8.5 8.5 8.5 8.5-3.813 8.5-8.5zM24 14c0 6.625-5.375 12-12 12s-12-5.375-12-12 5.375-12 12-12 12 5.375 12 12z"></path>
</symbol>
<symbol id="icon-check-circle-o" viewBox="0 0 24 28">
<title>check-circle-o</title>
<path d="M18.297 12.703l-6.594 6.594c-0.391 0.391-1.016 0.391-1.406 0l-4.594-4.594c-0.391-0.391-0.391-1.016 0-1.406l1.594-1.594c0.391-0.391 1.016-0.391 1.406 0l2.297 2.297 4.297-4.297c0.391-0.391 1.016-0.391 1.406 0l1.594 1.594c0.391 0.391 0.391 1.016 0 1.406zM20.5 14c0-4.688-3.813-8.5-8.5-8.5s-8.5 3.813-8.5 8.5 3.813 8.5 8.5 8.5 8.5-3.813 8.5-8.5zM24 14c0 6.625-5.375 12-12 12s-12-5.375-12-12 5.375-12 12-12 12 5.375 12 12z"></path>
</symbol>
<symbol id="icon-arrow-left" viewBox="0 0 25 28">
<title>arrow-left</title>
<path d="M24 14v2c0 1.062-0.703 2-1.828 2h-11l4.578 4.594c0.375 0.359 0.594 0.875 0.594 1.406s-0.219 1.047-0.594 1.406l-1.172 1.188c-0.359 0.359-0.875 0.578-1.406 0.578s-1.047-0.219-1.422-0.578l-10.172-10.187c-0.359-0.359-0.578-0.875-0.578-1.406s0.219-1.047 0.578-1.422l10.172-10.156c0.375-0.375 0.891-0.594 1.422-0.594s1.031 0.219 1.406 0.594l1.172 1.156c0.375 0.375 0.594 0.891 0.594 1.422s-0.219 1.047-0.594 1.422l-4.578 4.578h11c1.125 0 1.828 0.938 1.828 2z"></path>
</symbol>
<symbol id="icon-arrow-right" viewBox="0 0 23 28">
<title>arrow-right</title>
<path d="M23 15c0 0.531-0.203 1.047-0.578 1.422l-10.172 10.172c-0.375 0.359-0.891 0.578-1.422 0.578s-1.031-0.219-1.406-0.578l-1.172-1.172c-0.375-0.375-0.594-0.891-0.594-1.422s0.219-1.047 0.594-1.422l4.578-4.578h-11c-1.125 0-1.828-0.938-1.828-2v-2c0-1.062 0.703-2 1.828-2h11l-4.578-4.594c-0.375-0.359-0.594-0.875-0.594-1.406s0.219-1.047 0.594-1.406l1.172-1.172c0.375-0.375 0.875-0.594 1.406-0.594s1.047 0.219 1.422 0.594l10.172 10.172c0.375 0.359 0.578 0.875 0.578 1.406z"></path>
</symbol>
<symbol id="icon-leaf" viewBox="0 0 28 28">
<title>leaf</title>
<path d="M20 11c0-0.547-0.453-1-1-1-5.531 0-9.094 2.312-12.703 6.297-0.187 0.203-0.297 0.422-0.297 0.703 0 0.547 0.453 1 1 1 0.281 0 0.5-0.109 0.703-0.297 0.766-0.688 1.453-1.437 2.203-2.141 2.828-2.547 5.25-3.563 9.094-3.563 0.547 0 1-0.453 1-1zM28 7.906c0 1-0.109 2.016-0.313 3.016-1 4.859-4.125 8.016-8.469 10.172-2.109 1.062-4.469 1.687-6.844 1.687-1.5 0-3.047-0.25-4.469-0.734-0.75-0.25-2.25-1.234-2.875-1.234-0.781 0-1.719 3.187-3.078 3.187-0.984 0-1.281-0.484-1.703-1.203-0.141-0.266-0.25-0.359-0.25-0.688 0-1.625 3.094-2.891 3.094-3.797 0-0.141-0.406-0.969-0.469-1.281-0.094-0.531-0.141-1.078-0.141-1.625 0-4.969 3.953-8.516 8.391-9.984 3.203-1.062 10.016 0.172 12.187-1.891 0.859-0.797 1.281-1.531 2.594-1.531 1.766 0 2.344 4.578 2.344 5.906z"></path>
</symbol>
<symbol id="icon-fire" viewBox="0 0 22 28">
<title>fire</title>
<path d="M22 26.5v1c0 0.266-0.234 0.5-0.5 0.5h-21c-0.266 0-0.5-0.234-0.5-0.5v-1c0-0.266 0.234-0.5 0.5-0.5h21c0.266 0 0.5 0.234 0.5 0.5zM18 10c0 5.984-7 6.516-7 10.5 0 1.094 0.547 2.547 1.047 3.5l-0.063-0.016 0.016 0.016c-4.312-1.984-8-4.719-8-10 0-5.984 7-6.516 7-10.5 0-1.094-0.547-2.547-1.031-3.5l0.047 0.016-0.016-0.016c4.312 1.984 8 4.719 8 10z"></path>
</symbol>
<symbol id="icon-calendar" viewBox="0 0 26 28">
<title>Kalendarz</title>
<path d="M2 26h4.5v-4.5h-4.5v4.5zM7.5 26h5v-4.5h-5v4.5zM2 20.5h4.5v-5h-4.5v5zM7.5 20.5h5v-5h-5v5zM2 14.5h4.5v-4.5h-4.5v4.5zM13.5 26h5v-4.5h-5v4.5zM7.5 14.5h5v-4.5h-5v4.5zM19.5 26h4.5v-4.5h-4.5v4.5zM13.5 20.5h5v-5h-5v5zM8 7v-4.5c0-0.266-0.234-0.5-0.5-0.5h-1c-0.266 0-0.5 0.234-0.5 0.5v4.5c0 0.266 0.234 0.5 0.5 0.5h1c0.266 0 0.5-0.234 0.5-0.5zM19.5 20.5h4.5v-5h-4.5v5zM13.5 14.5h5v-4.5h-5v4.5zM19.5 14.5h4.5v-4.5h-4.5v4.5zM20 7v-4.5c0-0.266-0.234-0.5-0.5-0.5h-1c-0.266 0-0.5 0.234-0.5 0.5v4.5c0 0.266 0.234 0.5 0.5 0.5h1c0.266 0 0.5-0.234 0.5-0.5zM26 6v20c0 1.094-0.906 2-2 2h-22c-1.094 0-2-0.906-2-2v-20c0-1.094 0.906-2 2-2h2v-1.5c0-1.375 1.125-2.5 2.5-2.5h1c1.375 0 2.5 1.125 2.5 2.5v1.5h6v-1.5c0-1.375 1.125-2.5 2.5-2.5h1c1.375 0 2.5 1.125 2.5 2.5v1.5h2c1.094 0 2 0.906 2 2z"></path>
</symbol>
<symbol id="icon-comment" viewBox="0 0 28 28">
<title>comment</title>
<path d="M28 14c0 5.531-6.266 10-14 10-0.766 0-1.531-0.047-2.266-0.125-2.047 1.813-4.484 3.094-7.187 3.781-0.562 0.156-1.172 0.266-1.781 0.344-0.344 0.031-0.672-0.219-0.75-0.594v-0.016c-0.078-0.391 0.187-0.625 0.422-0.906 0.984-1.109 2.109-2.047 2.844-4.656-3.219-1.828-5.281-4.656-5.281-7.828 0-5.516 6.266-10 14-10s14 4.469 14 10z"></path>
</symbol>
<symbol id="icon-chevron-up" viewBox="0 0 28 28">
<title>chevron-up</title>
<path d="M26.297 20.797l-2.594 2.578c-0.391 0.391-1.016 0.391-1.406 0l-8.297-8.297-8.297 8.297c-0.391 0.391-1.016 0.391-1.406 0l-2.594-2.578c-0.391-0.391-0.391-1.031 0-1.422l11.594-11.578c0.391-0.391 1.016-0.391 1.406 0l11.594 11.578c0.391 0.391 0.391 1.031 0 1.422z"></path>
</symbol>
<symbol id="icon-chevron-down" viewBox="0 0 28 28">
<title>chevron-down</title>
<path d="M26.297 12.625l-11.594 11.578c-0.391 0.391-1.016 0.391-1.406 0l-11.594-11.578c-0.391-0.391-0.391-1.031 0-1.422l2.594-2.578c0.391-0.391 1.016-0.391 1.406 0l8.297 8.297 8.297-8.297c0.391-0.391 1.016-0.391 1.406 0l2.594 2.578c0.391 0.391 0.391 1.031 0 1.422z"></path>
</symbol>
<symbol id="icon-shopping-cart" viewBox="0 0 26 28">
<title>shopping-cart</title>
<path d="M10 24c0 1.094-0.906 2-2 2s-2-0.906-2-2 0.906-2 2-2 2 0.906 2 2zM24 24c0 1.094-0.906 2-2 2s-2-0.906-2-2 0.906-2 2-2 2 0.906 2 2zM26 7v8c0 0.5-0.391 0.938-0.891 1l-16.312 1.906c0.078 0.359 0.203 0.719 0.203 1.094 0 0.359-0.219 0.688-0.375 1h14.375c0.547 0 1 0.453 1 1s-0.453 1-1 1h-16c-0.547 0-1-0.453-1-1 0-0.484 0.703-1.656 0.953-2.141l-2.766-12.859h-3.187c-0.547 0-1-0.453-1-1s0.453-1 1-1h4c1.047 0 1.078 1.25 1.234 2h18.766c0.547 0 1 0.453 1 1z"></path>
</symbol>
<symbol id="icon-twitter-square" viewBox="0 0 24 28">
<title>twitter-square</title>
<path d="M20 9.531c-0.594 0.266-1.219 0.438-1.891 0.531 0.688-0.406 1.203-1.062 1.453-1.828-0.641 0.375-1.344 0.656-2.094 0.797-0.594-0.641-1.453-1.031-2.391-1.031-1.813 0-3.281 1.469-3.281 3.281 0 0.25 0.016 0.516 0.078 0.75-2.734-0.141-5.156-1.437-6.781-3.437-0.281 0.484-0.453 1.062-0.453 1.656 0 1.141 0.531 2.141 1.422 2.734-0.547-0.016-1.062-0.172-1.563-0.406v0.031c0 1.594 1.203 2.922 2.703 3.219-0.281 0.078-0.5 0.125-0.797 0.125-0.203 0-0.406-0.031-0.609-0.063 0.422 1.297 1.625 2.25 3.063 2.281-1.125 0.875-2.531 1.406-4.078 1.406-0.266 0-0.531-0.016-0.781-0.047 1.453 0.922 3.172 1.469 5.031 1.469 6.031 0 9.344-5 9.344-9.344 0-0.141 0-0.281-0.016-0.422 0.641-0.453 1.203-1.031 1.641-1.703zM24 6.5v15c0 2.484-2.016 4.5-4.5 4.5h-15c-2.484 0-4.5-2.016-4.5-4.5v-15c0-2.484 2.016-4.5 4.5-4.5h15c2.484 0 4.5 2.016 4.5 4.5z"></path>
</symbol>
<symbol id="icon-facebook-square" viewBox="0 0 24 28">
<title>facebook-square</title>
<path d="M19.5 2c2.484 0 4.5 2.016 4.5 4.5v15c0 2.484-2.016 4.5-4.5 4.5h-2.938v-9.297h3.109l0.469-3.625h-3.578v-2.312c0-1.047 0.281-1.75 1.797-1.75l1.906-0.016v-3.234c-0.328-0.047-1.469-0.141-2.781-0.141-2.766 0-4.672 1.687-4.672 4.781v2.672h-3.125v3.625h3.125v9.297h-8.313c-2.484 0-4.5-2.016-4.5-4.5v-15c0-2.484 2.016-4.5 4.5-4.5h15z"></path>
</symbol>
<symbol id="icon-camera-retro" viewBox="0 0 28 28">
<title>camera-retro</title>
<path d="M14.5 13c0-0.281-0.219-0.5-0.5-0.5-1.375 0-2.5 1.125-2.5 2.5 0 0.281 0.219 0.5 0.5 0.5s0.5-0.219 0.5-0.5c0-0.828 0.672-1.5 1.5-1.5 0.281 0 0.5-0.219 0.5-0.5zM18 15.031c0 2.203-1.797 4-4 4s-4-1.797-4-4 1.797-4 4-4 4 1.797 4 4zM2 24h24v-2h-24v2zM20 15.031c0-3.313-2.688-6-6-6s-6 2.688-6 6 2.688 6 6 6 6-2.688 6-6zM4 5h6v-2h-6v2zM2 8h24v-4h-12.938l-1 2h-10.063v2zM28 4v20c0 1.109-0.891 2-2 2h-24c-1.109 0-2-0.891-2-2v-20c0-1.109 0.891-2 2-2h24c1.109 0 2 0.891 2 2z"></path>
</symbol>
<symbol id="icon-key" viewBox="0 0 26 28">
<title>key</title>
<path d="M13 8c0-1.656-1.344-3-3-3s-3 1.344-3 3c0 0.453 0.109 0.891 0.297 1.297-0.406-0.187-0.844-0.297-1.297-0.297-1.656 0-3 1.344-3 3s1.344 3 3 3 3-1.344 3-3c0-0.453-0.109-0.891-0.297-1.297 0.406 0.187 0.844 0.297 1.297 0.297 1.656 0 3-1.344 3-3zM26.297 19c0 0.359-1.437 1.797-1.797 1.797-0.406 0-1.672-1.469-2-1.797l-1.5 1.5 3.437 3.437c0.281 0.281 0.438 0.672 0.438 1.062 0 0.875-1 1.875-1.875 1.875-0.391 0-0.781-0.156-1.062-0.438l-10.484-10.484c-1.641 1.219-3.641 2.047-5.703 2.047-3.406 0-5.75-2.359-5.75-5.75 0-5.125 5.125-10.25 10.25-10.25 3.391 0 5.75 2.344 5.75 5.75 0 2.063-0.828 4.062-2.047 5.703l5.547 5.547 1.5-1.5c-0.328-0.328-1.797-1.594-1.797-2 0-0.359 1.437-1.797 1.797-1.797 0.125 0 0.266 0.063 0.359 0.156 0.578 0.578 4.937 4.688 4.937 5.141z"></path>
</symbol>
<symbol id="icon-cogs" viewBox="0 0 30 28">
<title>cogs</title>
<path d="M14 14c0-2.203-1.797-4-4-4s-4 1.797-4 4 1.797 4 4 4 4-1.797 4-4zM26 22c0-1.094-0.906-2-2-2s-2 0.906-2 2c0 1.109 0.906 2 2 2 1.109 0 2-0.906 2-2zM26 6c0-1.094-0.906-2-2-2s-2 0.906-2 2c0 1.109 0.906 2 2 2 1.109 0 2-0.906 2-2zM20 12.578v2.891c0 0.203-0.156 0.438-0.359 0.469l-2.422 0.375c-0.125 0.406-0.297 0.797-0.5 1.188 0.438 0.625 0.906 1.203 1.406 1.797 0.063 0.094 0.109 0.187 0.109 0.313 0 0.109-0.031 0.219-0.109 0.297-0.313 0.422-2.063 2.328-2.516 2.328-0.125 0-0.234-0.047-0.328-0.109l-1.797-1.406c-0.391 0.203-0.781 0.359-1.203 0.484-0.078 0.797-0.156 1.656-0.359 2.422-0.063 0.219-0.25 0.375-0.469 0.375h-2.906c-0.219 0-0.438-0.172-0.469-0.391l-0.359-2.391c-0.406-0.125-0.797-0.297-1.172-0.484l-1.844 1.391c-0.078 0.078-0.203 0.109-0.313 0.109-0.125 0-0.234-0.047-0.328-0.125-0.406-0.375-2.25-2.047-2.25-2.5 0-0.109 0.047-0.203 0.109-0.297 0.453-0.594 0.922-1.172 1.375-1.781-0.219-0.422-0.406-0.844-0.547-1.281l-2.375-0.375c-0.219-0.031-0.375-0.234-0.375-0.453v-2.891c0-0.203 0.156-0.438 0.359-0.469l2.422-0.375c0.125-0.406 0.297-0.797 0.5-1.188-0.438-0.625-0.906-1.203-1.406-1.797-0.063-0.094-0.109-0.203-0.109-0.313s0.031-0.219 0.109-0.313c0.313-0.422 2.063-2.312 2.516-2.312 0.125 0 0.234 0.047 0.328 0.109l1.797 1.406c0.391-0.203 0.781-0.359 1.203-0.5 0.078-0.781 0.156-1.641 0.359-2.406 0.063-0.219 0.25-0.375 0.469-0.375h2.906c0.219 0 0.438 0.172 0.469 0.391l0.359 2.391c0.406 0.125 0.797 0.297 1.172 0.484l1.844-1.391c0.094-0.078 0.203-0.109 0.313-0.109 0.125 0 0.234 0.047 0.328 0.125 0.406 0.375 2.25 2.063 2.25 2.5 0 0.109-0.047 0.203-0.109 0.297-0.453 0.609-0.922 1.172-1.359 1.781 0.203 0.422 0.391 0.844 0.531 1.281l2.375 0.359c0.219 0.047 0.375 0.25 0.375 0.469zM30 20.906v2.188c0 0.234-2.016 0.453-2.328 0.484-0.125 0.297-0.281 0.562-0.469 0.812 0.141 0.313 0.797 1.875 0.797 2.156 0 0.047-0.016 0.078-0.063 0.109-0.187 0.109-1.859 1.109-1.937 1.109-0.203 0-1.375-1.563-1.531-1.797-0.156 0.016-0.313 0.031-0.469 0.031s-0.313-0.016-0.469-0.031c-0.156 0.234-1.328 1.797-1.531 1.797-0.078 0-1.75-1-1.937-1.109-0.047-0.031-0.063-0.078-0.063-0.109 0-0.266 0.656-1.844 0.797-2.156-0.187-0.25-0.344-0.516-0.469-0.812-0.313-0.031-2.328-0.25-2.328-0.484v-2.188c0-0.234 2.016-0.453 2.328-0.484 0.125-0.281 0.281-0.562 0.469-0.812-0.141-0.313-0.797-1.891-0.797-2.156 0-0.031 0.016-0.078 0.063-0.109 0.187-0.094 1.859-1.094 1.937-1.094 0.203 0 1.375 1.547 1.531 1.781 0.156-0.016 0.313-0.031 0.469-0.031s0.313 0.016 0.469 0.031c0.438-0.609 0.906-1.219 1.437-1.75l0.094-0.031c0.078 0 1.75 0.984 1.937 1.094 0.047 0.031 0.063 0.078 0.063 0.109 0 0.281-0.656 1.844-0.797 2.156 0.187 0.25 0.344 0.531 0.469 0.812 0.313 0.031 2.328 0.25 2.328 0.484zM30 4.906v2.187c0 0.234-2.016 0.453-2.328 0.484-0.125 0.297-0.281 0.562-0.469 0.812 0.141 0.313 0.797 1.875 0.797 2.156 0 0.047-0.016 0.078-0.063 0.109-0.187 0.109-1.859 1.109-1.937 1.109-0.203 0-1.375-1.563-1.531-1.797-0.156 0.016-0.313 0.031-0.469 0.031s-0.313-0.016-0.469-0.031c-0.156 0.234-1.328 1.797-1.531 1.797-0.078 0-1.75-1-1.937-1.109-0.047-0.031-0.063-0.078-0.063-0.109 0-0.266 0.656-1.844 0.797-2.156-0.187-0.25-0.344-0.516-0.469-0.812-0.313-0.031-2.328-0.25-2.328-0.484v-2.188c0-0.234 2.016-0.453 2.328-0.484 0.125-0.281 0.281-0.562 0.469-0.812-0.141-0.313-0.797-1.891-0.797-2.156 0-0.031 0.016-0.078 0.063-0.109 0.187-0.094 1.859-1.094 1.937-1.094 0.203 0 1.375 1.547 1.531 1.781 0.156-0.016 0.313-0.031 0.469-0.031s0.313 0.016 0.469 0.031c0.438-0.609 0.906-1.219 1.437-1.75l0.094-0.031c0.078 0 1.75 0.984 1.937 1.094 0.047 0.031 0.063 0.078 0.063 0.109 0 0.281-0.656 1.844-0.797 2.156 0.187 0.25 0.344 0.531 0.469 0.812 0.313 0.031 2.328 0.25 2.328 0.484z"></path>
</symbol>
<symbol id="icon-comments" viewBox="0 0 28 28">
<title>comments</title>
<path d="M22 12c0 4.422-4.922 8-11 8-0.953 0-1.875-0.094-2.75-0.25-1.297 0.922-2.766 1.594-4.344 2-0.422 0.109-0.875 0.187-1.344 0.25h-0.047c-0.234 0-0.453-0.187-0.5-0.453v0c-0.063-0.297 0.141-0.484 0.313-0.688 0.609-0.688 1.297-1.297 1.828-2.594-2.531-1.469-4.156-3.734-4.156-6.266 0-4.422 4.922-8 11-8s11 3.578 11 8zM28 16c0 2.547-1.625 4.797-4.156 6.266 0.531 1.297 1.219 1.906 1.828 2.594 0.172 0.203 0.375 0.391 0.313 0.688v0c-0.063 0.281-0.297 0.484-0.547 0.453-0.469-0.063-0.922-0.141-1.344-0.25-1.578-0.406-3.047-1.078-4.344-2-0.875 0.156-1.797 0.25-2.75 0.25-2.828 0-5.422-0.781-7.375-2.063 0.453 0.031 0.922 0.063 1.375 0.063 3.359 0 6.531-0.969 8.953-2.719 2.609-1.906 4.047-4.484 4.047-7.281 0-0.812-0.125-1.609-0.359-2.375 2.641 1.453 4.359 3.766 4.359 6.375z"></path>
</symbol>
<symbol id="icon-thumbs-o-up" viewBox="0 0 24 28">
<title>thumbs-o-up</title>
<path d="M4 21c0-0.547-0.453-1-1-1s-1 0.453-1 1 0.453 1 1 1 1-0.453 1-1zM22 12c0-1.062-0.953-2-2-2h-5.5c0-1.828 1.5-3.156 1.5-5 0-1.828-0.359-3-2.5-3-1 1.016-0.484 3.406-2 5-0.438 0.453-0.812 0.938-1.203 1.422-0.703 0.906-2.562 3.578-3.797 3.578h-0.5v10h0.5c0.875 0 2.312 0.562 3.156 0.859 1.719 0.594 3.5 1.141 5.344 1.141h1.891c1.766 0 3-0.703 3-2.609 0-0.297-0.031-0.594-0.078-0.875 0.656-0.359 1.016-1.25 1.016-1.969 0-0.375-0.094-0.75-0.281-1.078 0.531-0.5 0.828-1.125 0.828-1.859 0-0.5-0.219-1.234-0.547-1.609 0.734-0.016 1.172-1.422 1.172-2zM24 11.984c0 0.906-0.266 1.797-0.766 2.547 0.094 0.344 0.141 0.719 0.141 1.078 0 0.781-0.203 1.563-0.594 2.25 0.031 0.219 0.047 0.453 0.047 0.672 0 1-0.328 2-0.938 2.781 0.031 2.953-1.984 4.688-4.875 4.688h-2.016c-2.219 0-4.281-0.656-6.344-1.375-0.453-0.156-1.719-0.625-2.156-0.625h-4.5c-1.109 0-2-0.891-2-2v-10c0-1.109 0.891-2 2-2h4.281c0.609-0.406 1.672-1.813 2.141-2.422 0.531-0.688 1.078-1.359 1.672-2 0.938-1 0.438-3.469 2-5 0.375-0.359 0.875-0.578 1.406-0.578 1.625 0 3.187 0.578 3.953 2.094 0.484 0.953 0.547 1.859 0.547 2.906 0 1.094-0.281 2.031-0.75 3h2.75c2.156 0 4 1.828 4 3.984z"></path>
</symbol>
<symbol id="icon-thumbs-o-down" viewBox="0 0 24 28">
<title>thumbs-o-down</title>
<path d="M4 7c0-0.547-0.453-1-1-1s-1 0.453-1 1 0.453 1 1 1 1-0.453 1-1zM22 16c0-0.578-0.438-1.984-1.172-2 0.328-0.375 0.547-1.109 0.547-1.609 0-0.734-0.297-1.359-0.828-1.859 0.187-0.328 0.281-0.703 0.281-1.078 0-0.719-0.359-1.609-1.016-1.969 0.047-0.281 0.078-0.578 0.078-0.875 0-1.828-1.156-2.609-2.891-2.609h-2c-1.844 0-3.625 0.547-5.344 1.141-0.844 0.297-2.281 0.859-3.156 0.859h-0.5v10h0.5c1.234 0 3.094 2.672 3.797 3.578 0.391 0.484 0.766 0.969 1.203 1.422 1.516 1.594 1 3.984 2 5 2.141 0 2.5-1.172 2.5-3 0-1.844-1.5-3.172-1.5-5h5.5c1.047 0 2-0.938 2-2zM24 16.016c0 2.156-1.844 3.984-4 3.984h-2.75c0.469 0.969 0.75 1.906 0.75 3 0 1.031-0.063 1.969-0.547 2.906-0.766 1.516-2.328 2.094-3.953 2.094-0.531 0-1.031-0.219-1.406-0.578-1.563-1.531-1.078-4-2-5.016-0.594-0.625-1.141-1.297-1.672-1.984-0.469-0.609-1.531-2.016-2.141-2.422h-4.281c-1.109 0-2-0.891-2-2v-10c0-1.109 0.891-2 2-2h4.5c0.438 0 1.703-0.469 2.156-0.625 2.25-0.781 4.203-1.375 6.609-1.375h1.75c2.844 0 4.891 1.687 4.875 4.609v0.078c0.609 0.781 0.938 1.781 0.938 2.781 0 0.219-0.016 0.453-0.047 0.672 0.391 0.688 0.594 1.469 0.594 2.25 0 0.359-0.047 0.734-0.141 1.078 0.5 0.75 0.766 1.641 0.766 2.547z"></path>
</symbol>
<symbol id="icon-star-half" viewBox="0 0 13 28">
<title>star-half</title>
<path d="M13 0.5v20.922l-7.016 3.687c-0.203 0.109-0.406 0.187-0.625 0.187-0.453 0-0.656-0.375-0.656-0.781 0-0.109 0.016-0.203 0.031-0.313l1.344-7.812-5.688-5.531c-0.187-0.203-0.391-0.469-0.391-0.75 0-0.469 0.484-0.656 0.875-0.719l7.844-1.141 3.516-7.109c0.141-0.297 0.406-0.641 0.766-0.641v0z"></path>
</symbol>
<symbol id="icon-heart-o" viewBox="0 0 28 28">
<title>heart-o</title>
<path d="M26 9.312c0-4.391-2.969-5.313-5.469-5.313-2.328 0-4.953 2.516-5.766 3.484-0.375 0.453-1.156 0.453-1.531 0-0.812-0.969-3.437-3.484-5.766-3.484-2.5 0-5.469 0.922-5.469 5.313 0 2.859 2.891 5.516 2.922 5.547l9.078 8.75 9.063-8.734c0.047-0.047 2.938-2.703 2.938-5.563zM28 9.312c0 3.75-3.437 6.891-3.578 7.031l-9.734 9.375c-0.187 0.187-0.438 0.281-0.688 0.281s-0.5-0.094-0.688-0.281l-9.75-9.406c-0.125-0.109-3.563-3.25-3.563-7 0-4.578 2.797-7.313 7.469-7.313 2.734 0 5.297 2.156 6.531 3.375 1.234-1.219 3.797-3.375 6.531-3.375 4.672 0 7.469 2.734 7.469 7.313z"></path>
</symbol>
<symbol id="icon-linkedin-square" viewBox="0 0 24 28">
<title>linkedin-square</title>
<path d="M3.703 22.094h3.609v-10.844h-3.609v10.844zM7.547 7.906c-0.016-1.062-0.781-1.875-2.016-1.875s-2.047 0.812-2.047 1.875c0 1.031 0.781 1.875 2 1.875h0.016c1.266 0 2.047-0.844 2.047-1.875zM16.688 22.094h3.609v-6.219c0-3.328-1.781-4.875-4.156-4.875-1.937 0-2.797 1.078-3.266 1.828h0.031v-1.578h-3.609s0.047 1.016 0 10.844v0h3.609v-6.062c0-0.313 0.016-0.641 0.109-0.875 0.266-0.641 0.859-1.313 1.859-1.313 1.297 0 1.813 0.984 1.813 2.453v5.797zM24 6.5v15c0 2.484-2.016 4.5-4.5 4.5h-15c-2.484 0-4.5-2.016-4.5-4.5v-15c0-2.484 2.016-4.5 4.5-4.5h15c2.484 0 4.5 2.016 4.5 4.5z"></path>
</symbol>
<symbol id="icon-trophy" viewBox="0 0 26 28">
<title>trophy</title>
<path d="M7.156 13.797c-0.656-1.437-1.156-3.344-1.156-5.797h-4v1.5c0 1.531 2.078 3.656 5.156 4.297zM24 9.5v-1.5h-4c0 2.453-0.5 4.359-1.156 5.797 3.078-0.641 5.156-2.766 5.156-4.297zM26 7.5v2c0 2.969-3.594 6.25-8.469 6.484-0.625 0.797-1.203 1.266-1.484 1.484-0.828 0.75-1.047 1.531-1.047 2.531s0.5 2 2 2 3 1 3 2.5v1c0 0.281-0.219 0.5-0.5 0.5h-13c-0.281 0-0.5-0.219-0.5-0.5v-1c0-1.5 1.5-2.5 3-2.5s2-1 2-2-0.219-1.781-1.047-2.531c-0.281-0.219-0.859-0.688-1.484-1.484-4.875-0.234-8.469-3.516-8.469-6.484v-2c0-0.828 0.672-1.5 1.5-1.5h4.5v-1.5c0-1.375 1.125-2.5 2.5-2.5h9c1.375 0 2.5 1.125 2.5 2.5v1.5h4.5c0.828 0 1.5 0.672 1.5 1.5z"></path>
</symbol>
<symbol id="icon-phone" viewBox="0 0 22 28">
<title>phone</title>
<path d="M22 19.375c0 0.562-0.25 1.656-0.484 2.172-0.328 0.766-1.203 1.266-1.906 1.656-0.922 0.5-1.859 0.797-2.906 0.797-1.453 0-2.766-0.594-4.094-1.078-0.953-0.344-1.875-0.766-2.734-1.297-2.656-1.641-5.859-4.844-7.5-7.5-0.531-0.859-0.953-1.781-1.297-2.734-0.484-1.328-1.078-2.641-1.078-4.094 0-1.047 0.297-1.984 0.797-2.906 0.391-0.703 0.891-1.578 1.656-1.906 0.516-0.234 1.609-0.484 2.172-0.484 0.109 0 0.219 0 0.328 0.047 0.328 0.109 0.672 0.875 0.828 1.188 0.5 0.891 0.984 1.797 1.5 2.672 0.25 0.406 0.719 0.906 0.719 1.391 0 0.953-2.828 2.344-2.828 3.187 0 0.422 0.391 0.969 0.609 1.344 1.578 2.844 3.547 4.813 6.391 6.391 0.375 0.219 0.922 0.609 1.344 0.609 0.844 0 2.234-2.828 3.187-2.828 0.484 0 0.984 0.469 1.391 0.719 0.875 0.516 1.781 1 2.672 1.5 0.313 0.156 1.078 0.5 1.188 0.828 0.047 0.109 0.047 0.219 0.047 0.328z"></path>
</symbol>
<symbol id="icon-phone-square" viewBox="0 0 24 28">
<title>phone-square</title>
<path d="M20 18.641c0-0.078 0-0.172-0.031-0.25-0.094-0.281-2.375-1.437-2.812-1.687-0.297-0.172-0.656-0.516-1.016-0.516-0.688 0-1.703 2.047-2.312 2.047-0.313 0-0.703-0.281-0.984-0.438-2.063-1.156-3.484-2.578-4.641-4.641-0.156-0.281-0.438-0.672-0.438-0.984 0-0.609 2.047-1.625 2.047-2.312 0-0.359-0.344-0.719-0.516-1.016-0.25-0.438-1.406-2.719-1.687-2.812-0.078-0.031-0.172-0.031-0.25-0.031-0.406 0-1.203 0.187-1.578 0.344-1.031 0.469-1.781 2.438-1.781 3.516 0 1.047 0.422 2 0.781 2.969 1.25 3.422 4.969 7.141 8.391 8.391 0.969 0.359 1.922 0.781 2.969 0.781 1.078 0 3.047-0.75 3.516-1.781 0.156-0.375 0.344-1.172 0.344-1.578zM24 6.5v15c0 2.484-2.016 4.5-4.5 4.5h-15c-2.484 0-4.5-2.016-4.5-4.5v-15c0-2.484 2.016-4.5 4.5-4.5h15c2.484 0 4.5 2.016 4.5 4.5z"></path>
</symbol>
<symbol id="icon-twitter" viewBox="0 0 26 28">
<title>twitter</title>
<path d="M25.312 6.375c-0.688 1-1.547 1.891-2.531 2.609 0.016 0.219 0.016 0.438 0.016 0.656 0 6.672-5.078 14.359-14.359 14.359-2.859 0-5.516-0.828-7.75-2.266 0.406 0.047 0.797 0.063 1.219 0.063 2.359 0 4.531-0.797 6.266-2.156-2.219-0.047-4.078-1.5-4.719-3.5 0.313 0.047 0.625 0.078 0.953 0.078 0.453 0 0.906-0.063 1.328-0.172-2.312-0.469-4.047-2.5-4.047-4.953v-0.063c0.672 0.375 1.453 0.609 2.281 0.641-1.359-0.906-2.25-2.453-2.25-4.203 0-0.938 0.25-1.797 0.688-2.547 2.484 3.062 6.219 5.063 10.406 5.281-0.078-0.375-0.125-0.766-0.125-1.156 0-2.781 2.25-5.047 5.047-5.047 1.453 0 2.766 0.609 3.687 1.594 1.141-0.219 2.234-0.641 3.203-1.219-0.375 1.172-1.172 2.156-2.219 2.781 1.016-0.109 2-0.391 2.906-0.781z"></path>
</symbol>
<symbol id="icon-facebook" viewBox="0 0 16 28">
<title>facebook</title>
<path d="M14.984 0.187v4.125h-2.453c-1.922 0-2.281 0.922-2.281 2.25v2.953h4.578l-0.609 4.625h-3.969v11.859h-4.781v-11.859h-3.984v-4.625h3.984v-3.406c0-3.953 2.422-6.109 5.953-6.109 1.687 0 3.141 0.125 3.563 0.187z"></path>
</symbol>
<symbol id="icon-hand-o-right" viewBox="0 0 28 28">
<title>hand-o-right</title>
<path d="M4 21c0-0.547-0.453-1-1-1s-1 0.453-1 1 0.453 1 1 1 1-0.453 1-1zM26 12c0-1.062-0.953-2-2-2h-9c0-0.984 1.5-2 1.5-4 0-1.5-1.172-2-2.5-2-0.438 0-1.234 1.813-1.406 2.172-0.187 0.344-0.375 0.688-0.578 1.016-0.516 0.828-1.109 1.547-1.75 2.266-1 1.141-2.109 2.547-3.766 2.547h-0.5v10h0.5c2.734 0 5.406 2 8.437 2 1.75 0 2.953-0.734 2.953-2.609 0-0.297-0.031-0.594-0.078-0.875 0.656-0.359 1.016-1.25 1.016-1.969 0-0.375-0.094-0.75-0.281-1.078 0.531-0.5 0.828-1.125 0.828-1.859 0-0.5-0.219-1.234-0.547-1.609h5.172c1.078 0 2-0.922 2-2zM28 11.984c0 2.188-1.813 4.016-4 4.016h-2.641c-0.047 0.656-0.25 1.281-0.578 1.859 0.031 0.219 0.047 0.453 0.047 0.672 0 1-0.328 2-0.938 2.781 0.031 2.953-1.984 4.688-4.875 4.688-1.75 0-3.406-0.484-5.031-1.078-0.953-0.344-2.5-0.922-3.484-0.922h-4.5c-1.109 0-2-0.891-2-2v-10c0-1.109 0.891-2 2-2h4.5c0.75 0 1.813-1.344 2.266-1.859 0.562-0.641 1.094-1.281 1.563-2.016 0.906-1.453 1.578-4.125 3.672-4.125 2.484 0 4.5 1.359 4.5 4 0 0.688-0.109 1.359-0.344 2h5.844c2.156 0 4 1.828 4 3.984z"></path>
</symbol>
<symbol id="icon-hand-o-left" viewBox="0 0 28 28">
<title>hand-o-left</title>
<path d="M21.5 22h0.5v-10h-0.5c-1.656 0-2.766-1.406-3.766-2.547-0.641-0.719-1.234-1.437-1.75-2.266-0.219-0.344-0.406-0.703-0.594-1.062s-0.969-2.125-1.391-2.125c-1.328 0-2.5 0.5-2.5 2 0 2 1.5 3.016 1.5 4h-9c-1.047 0-2 0.938-2 2 0 1.078 0.922 2 2 2h5.172c-0.328 0.375-0.547 1.109-0.547 1.609 0 0.734 0.297 1.359 0.828 1.859-0.187 0.328-0.281 0.703-0.281 1.078 0 0.719 0.359 1.609 1.016 1.969-0.047 0.281-0.063 0.578-0.063 0.875 0 1.844 1.141 2.609 2.875 2.609 3.109 0 5.766-2 8.5-2zM26 21c0-0.547-0.453-1-1-1s-1 0.453-1 1 0.453 1 1 1 1-0.453 1-1zM28 12v10c0 1.109-0.891 2-2 2h-4.5c-0.984 0-2.531 0.578-3.484 0.922-1.594 0.578-3.234 1.078-4.953 1.078-2.875 0-4.969-1.625-4.953-4.609l0.016-0.078c-0.625-0.781-0.953-1.781-0.953-2.781 0-0.219 0.016-0.453 0.047-0.672-0.328-0.578-0.531-1.203-0.578-1.859h-2.641c-2.188 0-4-1.828-4-4.016 0-2.156 1.844-3.984 4-3.984h5.844c-0.234-0.641-0.344-1.312-0.344-2 0-2.641 2.016-4 4.5-4 2.094 0 2.766 2.672 3.672 4.125 0.469 0.734 1 1.375 1.563 2.016 0.453 0.516 1.516 1.859 2.266 1.859h4.5c1.109 0 2 0.891 2 2z"></path>
</symbol>
<symbol id="icon-hand-o-up" viewBox="0 0 24 28">
<title>hand-o-up</title>
<path d="M20 25c0-0.547-0.453-1-1-1s-1 0.453-1 1 0.453 1 1 1 1-0.453 1-1zM22 13.062c0-1.766-0.719-2.953-2.609-2.953-0.297 0-0.594 0.031-0.875 0.078-0.359-0.656-1.25-1.016-1.969-1.016-0.375 0-0.75 0.094-1.078 0.281-0.5-0.531-1.125-0.828-1.859-0.828-0.5 0-1.234 0.219-1.609 0.547v-5.172c0-1.078-0.922-2-2-2-1.062 0-2 0.953-2 2v9c-0.984 0-2-1.5-4-1.5-1.5 0-2 1.172-2 2.5 0 0.438 1.813 1.234 2.172 1.406 0.344 0.187 0.688 0.375 1.016 0.578 0.828 0.516 1.547 1.109 2.266 1.75 1.141 1 2.547 2.109 2.547 3.766v0.5h10v-0.5c0-2.734 2-5.406 2-8.437zM24 12.984c0 1.75-0.484 3.406-1.078 5.031-0.344 0.953-0.922 2.5-0.922 3.484v4.5c0 1.109-0.891 2-2 2h-10c-1.109 0-2-0.891-2-2v-4.5c0-0.75-1.344-1.813-1.859-2.266-0.641-0.562-1.281-1.094-2.016-1.563-1.453-0.906-4.125-1.578-4.125-3.672 0-2.484 1.359-4.5 4-4.5 0.688 0 1.359 0.109 2 0.344v-5.844c0-2.156 1.828-4 3.984-4 2.188 0 4.016 1.813 4.016 4v2.641c0.656 0.047 1.281 0.25 1.859 0.578 0.219-0.031 0.453-0.047 0.672-0.047 1 0 2 0.328 2.781 0.938 2.953-0.031 4.688 1.984 4.688 4.875z"></path>
</symbol>
<symbol id="icon-hand-o-down" viewBox="0 0 24 28">
<title>hand-o-down</title>
<path d="M22 15c0-3.109-2-5.766-2-8.5v-0.5h-10v0.5c0 1.656-1.406 2.766-2.547 3.766-0.719 0.641-1.437 1.234-2.266 1.75-0.344 0.219-0.703 0.406-1.062 0.594s-2.125 0.969-2.125 1.391c0 1.328 0.5 2.5 2 2.5 2 0 3.016-1.5 4-1.5v9c0 1.047 0.938 2 2 2 1.078 0 2-0.922 2-2v-5.172c0.406 0.313 1.094 0.547 1.609 0.547 0.734 0 1.359-0.297 1.859-0.828 0.328 0.187 0.703 0.281 1.078 0.281 0.719 0 1.609-0.359 1.969-1.016 0.281 0.047 0.578 0.063 0.875 0.063 1.844 0 2.609-1.141 2.609-2.875zM20 3c0-0.547-0.453-1-1-1s-1 0.453-1 1 0.453 1 1 1 1-0.453 1-1zM24 14.938c0 2.875-1.625 4.969-4.609 4.953l-0.078-0.016c-0.781 0.625-1.781 0.953-2.781 0.953-0.219 0-0.453-0.016-0.672-0.047-0.531 0.297-1.25 0.516-1.859 0.578v2.641c0 2.188-1.828 4-4.016 4-2.156 0-3.984-1.844-3.984-4v-5.844c-0.609 0.25-1.344 0.344-2 0.344-2.625 0-4-2.016-4-4.5 0-2.094 2.672-2.766 4.125-3.672 0.734-0.469 1.375-1 2.016-1.563 0.516-0.453 1.859-1.516 1.859-2.266v-4.5c0-1.109 0.891-2 2-2h10c1.109 0 2 0.891 2 2v4.5c0 0.984 0.578 2.531 0.922 3.484 0.578 1.594 1.078 3.234 1.078 4.953z"></path>
</symbol>
<symbol id="icon-globe" viewBox="0 0 24 28">
<title>globe</title>
<path d="M12 2c6.625 0 12 5.375 12 12s-5.375 12-12 12-12-5.375-12-12 5.375-12 12-12zM16.281 10.141c-0.125 0.094-0.203 0.266-0.359 0.297 0.078-0.016 0.156-0.297 0.203-0.359 0.094-0.109 0.219-0.172 0.344-0.234 0.266-0.109 0.531-0.141 0.812-0.187 0.266-0.063 0.594-0.063 0.797 0.172-0.047-0.047 0.328-0.375 0.375-0.391 0.141-0.078 0.375-0.047 0.469-0.187 0.031-0.047 0.031-0.344 0.031-0.344-0.266 0.031-0.359-0.219-0.375-0.438 0 0.016-0.031 0.063-0.094 0.125 0.016-0.234-0.281-0.063-0.391-0.094-0.359-0.094-0.313-0.344-0.422-0.609-0.063-0.141-0.234-0.187-0.297-0.328-0.063-0.094-0.094-0.297-0.234-0.313-0.094-0.016-0.266 0.328-0.297 0.313-0.141-0.078-0.203 0.031-0.313 0.094-0.094 0.063-0.172 0.031-0.266 0.078 0.281-0.094-0.125-0.25-0.266-0.219 0.219-0.063 0.109-0.297-0.016-0.406h0.078c-0.031-0.141-0.469-0.266-0.609-0.359s-0.891-0.25-1.047-0.156c-0.187 0.109 0.047 0.422 0.047 0.578 0.016 0.187-0.187 0.234-0.187 0.391 0 0.266 0.5 0.219 0.375 0.578-0.078 0.219-0.375 0.266-0.5 0.438-0.125 0.156 0.016 0.438 0.141 0.547 0.125 0.094-0.219 0.25-0.266 0.281-0.266 0.125-0.469-0.266-0.531-0.5-0.047-0.172-0.063-0.375-0.25-0.469-0.094-0.031-0.391-0.078-0.453 0.016-0.094-0.234-0.422-0.328-0.641-0.406-0.313-0.109-0.578-0.109-0.906-0.063 0.109-0.016-0.031-0.5-0.297-0.422 0.078-0.156 0.047-0.328 0.078-0.484 0.031-0.125 0.094-0.25 0.187-0.359 0.031-0.063 0.375-0.422 0.266-0.438 0.266 0.031 0.562 0.047 0.781-0.172 0.141-0.141 0.203-0.375 0.344-0.531 0.203-0.234 0.453 0.063 0.672 0.078 0.313 0.016 0.297-0.328 0.125-0.484 0.203 0.016 0.031-0.359-0.078-0.406-0.141-0.047-0.672 0.094-0.391 0.203-0.063-0.031-0.438 0.75-0.656 0.359-0.063-0.078-0.094-0.406-0.234-0.422-0.125 0-0.203 0.141-0.25 0.234 0.078-0.203-0.438-0.344-0.547-0.359 0.234-0.156 0.047-0.328-0.125-0.422-0.125-0.078-0.516-0.141-0.625-0.016-0.297 0.359 0.313 0.406 0.469 0.5 0.047 0.031 0.234 0.141 0.125 0.219-0.094 0.047-0.375 0.125-0.406 0.187-0.094 0.141 0.109 0.297-0.031 0.438-0.141-0.141-0.141-0.375-0.25-0.531 0.141 0.172-0.562 0.078-0.547 0.078-0.234 0-0.609 0.156-0.781-0.078-0.031-0.063-0.031-0.422 0.063-0.344-0.141-0.109-0.234-0.219-0.328-0.281-0.516 0.172-1 0.391-1.469 0.641 0.063 0.016 0.109 0.016 0.187-0.016 0.125-0.047 0.234-0.125 0.359-0.187 0.156-0.063 0.484-0.25 0.656-0.109 0.016-0.031 0.063-0.063 0.078-0.078 0.109 0.125 0.219 0.25 0.313 0.391-0.125-0.063-0.328-0.031-0.469-0.016-0.109 0.031-0.297 0.063-0.344 0.187 0.047 0.078 0.109 0.203 0.078 0.281-0.203-0.141-0.359-0.375-0.641-0.406-0.125 0-0.25 0-0.344 0.016-1.5 0.828-2.766 2.031-3.672 3.469 0.063 0.063 0.125 0.109 0.187 0.125 0.156 0.047 0 0.5 0.297 0.266 0.094 0.078 0.109 0.187 0.047 0.297 0.016-0.016 0.641 0.391 0.688 0.422 0.109 0.094 0.281 0.203 0.328 0.328 0.031 0.109-0.063 0.234-0.156 0.281-0.016-0.031-0.25-0.266-0.281-0.203-0.047 0.078 0 0.5 0.172 0.484-0.25 0.016-0.141 0.984-0.203 1.172 0 0.016 0.031 0.016 0.031 0.016-0.047 0.187 0.109 0.922 0.422 0.844-0.203 0.047 0.359 0.766 0.438 0.812 0.203 0.141 0.438 0.234 0.578 0.438 0.156 0.219 0.156 0.547 0.375 0.719-0.063 0.187 0.328 0.406 0.313 0.672-0.031 0.016-0.047 0.016-0.078 0.031 0.078 0.219 0.375 0.219 0.484 0.422 0.063 0.125 0 0.422 0.203 0.359 0.031-0.344-0.203-0.688-0.375-0.969-0.094-0.156-0.187-0.297-0.266-0.453-0.078-0.141-0.094-0.313-0.156-0.469 0.063 0.016 0.406 0.141 0.375 0.187-0.125 0.313 0.5 0.859 0.672 1.062 0.047 0.047 0.406 0.516 0.219 0.516 0.203 0 0.484 0.313 0.578 0.469 0.141 0.234 0.109 0.531 0.203 0.781 0.094 0.313 0.531 0.453 0.781 0.594 0.219 0.109 0.406 0.266 0.625 0.344 0.328 0.125 0.406 0.016 0.688-0.031 0.406-0.063 0.453 0.391 0.781 0.562 0.203 0.109 0.641 0.266 0.859 0.172-0.094 0.031 0.328 0.672 0.359 0.719 0.141 0.187 0.406 0.281 0.562 0.469 0.047-0.031 0.094-0.078 0.109-0.141-0.063 0.172 0.234 0.5 0.391 0.469 0.172-0.031 0.219-0.375 0.219-0.5-0.313 0.156-0.594 0.031-0.766-0.281-0.031-0.078-0.281-0.516-0.063-0.516 0.297 0 0.094-0.234 0.063-0.453s-0.25-0.359-0.359-0.547c-0.094 0.187-0.406 0.141-0.5-0.016 0 0.047-0.047 0.125-0.047 0.187-0.078 0-0.156 0.016-0.234-0.016 0.031-0.187 0.047-0.422 0.094-0.625 0.078-0.281 0.594-0.828-0.078-0.797-0.234 0.016-0.328 0.109-0.406 0.313-0.078 0.187-0.047 0.359-0.266 0.453-0.141 0.063-0.609 0.031-0.75-0.047-0.297-0.172-0.5-0.719-0.5-1.031-0.016-0.422 0.203-0.797 0-1.188 0.094-0.078 0.187-0.234 0.297-0.313 0.094-0.063 0.203 0.047 0.25-0.141-0.047-0.031-0.109-0.094-0.125-0.094 0.234 0.109 0.672-0.156 0.875 0 0.125 0.094 0.266 0.125 0.344-0.031 0.016-0.047-0.109-0.234-0.047-0.359 0.047 0.266 0.219 0.313 0.453 0.141 0.094 0.094 0.344 0.063 0.516 0.156 0.172 0.109 0.203 0.281 0.406 0.047 0.125 0.187 0.141 0.187 0.187 0.375 0.047 0.172 0.141 0.609 0.297 0.688 0.328 0.203 0.25-0.344 0.219-0.531-0.016-0.016-0.016-0.531-0.031-0.531-0.5-0.109-0.313-0.5-0.031-0.766 0.047-0.031 0.406-0.156 0.562-0.281 0.141-0.125 0.313-0.344 0.234-0.547 0.078 0 0.141-0.063 0.172-0.141-0.047-0.016-0.234-0.172-0.266-0.156 0.109-0.063 0.094-0.156 0.031-0.25 0.156-0.094 0.078-0.266 0.234-0.328 0.172 0.234 0.516-0.031 0.344-0.219 0.156-0.219 0.516-0.109 0.609-0.313 0.234 0.063 0.063-0.234 0.187-0.406 0.109-0.141 0.297-0.141 0.438-0.219 0 0.016 0.391-0.219 0.266-0.234 0.266 0.031 0.797-0.25 0.391-0.484 0.063-0.141-0.141-0.203-0.281-0.234 0.109-0.031 0.25 0.031 0.344-0.031 0.203-0.141 0.063-0.203-0.109-0.25-0.219-0.063-0.5 0.078-0.672 0.187zM13.734 23.844c2.141-0.375 4.047-1.437 5.484-2.953-0.094-0.094-0.266-0.063-0.391-0.125-0.125-0.047-0.219-0.094-0.375-0.125 0.031-0.313-0.313-0.422-0.531-0.578-0.203-0.156-0.328-0.328-0.625-0.266-0.031 0.016-0.344 0.125-0.281 0.187-0.203-0.172-0.297-0.266-0.562-0.344-0.25-0.078-0.422-0.391-0.672-0.109-0.125 0.125-0.063 0.313-0.125 0.438-0.203-0.172 0.187-0.375 0.031-0.562-0.187-0.219-0.516 0.141-0.672 0.234-0.094 0.078-0.203 0.109-0.266 0.203-0.078 0.109-0.109 0.25-0.172 0.359-0.047-0.125-0.313-0.094-0.328-0.187 0.063 0.375 0.063 0.766 0.141 1.141 0.047 0.219 0 0.578-0.187 0.75s-0.422 0.359-0.453 0.625c-0.031 0.187 0.016 0.359 0.187 0.406 0.016 0.234-0.25 0.406-0.234 0.656 0 0.016 0.016 0.172 0.031 0.25z"></path>
</symbol>
<symbol id="icon-wrench" viewBox="0 0 26 28">
<title>wrench</title>
<path d="M6 23c0-0.547-0.453-1-1-1s-1 0.453-1 1 0.453 1 1 1 1-0.453 1-1zM16.063 16.438l-10.656 10.656c-0.359 0.359-0.875 0.578-1.406 0.578s-1.047-0.219-1.422-0.578l-1.656-1.687c-0.375-0.359-0.594-0.875-0.594-1.406s0.219-1.047 0.594-1.422l10.641-10.641c0.812 2.047 2.453 3.687 4.5 4.5zM25.969 9.641c0 0.516-0.187 1.156-0.359 1.656-0.984 2.781-3.656 4.703-6.609 4.703-3.859 0-7-3.141-7-7s3.141-7 7-7c1.141 0 2.625 0.344 3.578 0.984 0.156 0.109 0.25 0.25 0.25 0.438 0 0.172-0.109 0.344-0.25 0.438l-4.578 2.641v3.5l3.016 1.672c0.516-0.297 4.141-2.578 4.453-2.578s0.5 0.234 0.5 0.547z"></path>
</symbol>
<symbol id="icon-briefcase" viewBox="0 0 28 28">
<title>briefcase</title>
<path d="M10 4h8v-2h-8v2zM28 14v7.5c0 1.375-1.125 2.5-2.5 2.5h-23c-1.375 0-2.5-1.125-2.5-2.5v-7.5h10.5v2.5c0 0.547 0.453 1 1 1h5c0.547 0 1-0.453 1-1v-2.5h10.5zM16 14v2h-4v-2h4zM28 6.5v6h-28v-6c0-1.375 1.125-2.5 2.5-2.5h5.5v-2.5c0-0.828 0.672-1.5 1.5-1.5h9c0.828 0 1.5 0.672 1.5 1.5v2.5h5.5c1.375 0 2.5 1.125 2.5 2.5z"></path>
</symbol>
<symbol id="icon-group" viewBox="0 0 30 28">
<title>group</title>
<path d="M9.266 14c-1.625 0.047-3.094 0.75-4.141 2h-2.094c-1.563 0-3.031-0.75-3.031-2.484 0-1.266-0.047-5.516 1.937-5.516 0.328 0 1.953 1.328 4.062 1.328 0.719 0 1.406-0.125 2.078-0.359-0.047 0.344-0.078 0.688-0.078 1.031 0 1.422 0.453 2.828 1.266 4zM26 23.953c0 2.531-1.672 4.047-4.172 4.047h-13.656c-2.5 0-4.172-1.516-4.172-4.047 0-3.531 0.828-8.953 5.406-8.953 0.531 0 2.469 2.172 5.594 2.172s5.063-2.172 5.594-2.172c4.578 0 5.406 5.422 5.406 8.953zM10 4c0 2.203-1.797 4-4 4s-4-1.797-4-4 1.797-4 4-4 4 1.797 4 4zM21 10c0 3.313-2.688 6-6 6s-6-2.688-6-6 2.688-6 6-6 6 2.688 6 6zM30 13.516c0 1.734-1.469 2.484-3.031 2.484h-2.094c-1.047-1.25-2.516-1.953-4.141-2 0.812-1.172 1.266-2.578 1.266-4 0-0.344-0.031-0.688-0.078-1.031 0.672 0.234 1.359 0.359 2.078 0.359 2.109 0 3.734-1.328 4.062-1.328 1.984 0 1.937 4.25 1.937 5.516zM28 4c0 2.203-1.797 4-4 4s-4-1.797-4-4 1.797-4 4-4 4 1.797 4 4z"></path>
</symbol>
<symbol id="icon-pinterest" viewBox="0 0 24 28">
<title>pinterest</title>
<path d="M24 14c0 6.625-5.375 12-12 12-1.188 0-2.312-0.172-3.406-0.5 0.453-0.719 0.969-1.641 1.219-2.562 0 0 0.141-0.531 0.844-3.297 0.406 0.797 1.625 1.5 2.922 1.5 3.859 0 6.484-3.516 6.484-8.234 0-3.547-3.016-6.875-7.609-6.875-5.688 0-8.563 4.094-8.563 7.5 0 2.063 0.781 3.906 2.453 4.594 0.266 0.109 0.516 0 0.594-0.313 0.063-0.203 0.187-0.734 0.25-0.953 0.078-0.313 0.047-0.406-0.172-0.672-0.484-0.578-0.797-1.313-0.797-2.359 0-3.031 2.266-5.75 5.906-5.75 3.219 0 5 1.969 5 4.609 0 3.453-1.531 6.375-3.813 6.375-1.25 0-2.188-1.031-1.891-2.312 0.359-1.516 1.062-3.156 1.062-4.25 0-0.984-0.531-1.813-1.625-1.813-1.281 0-2.312 1.328-2.312 3.109 0 0 0 1.141 0.391 1.906-1.313 5.563-1.547 6.531-1.547 6.531-0.219 0.906-0.234 1.922-0.203 2.766-4.234-1.859-7.187-6.078-7.187-11 0-6.625 5.375-12 12-12s12 5.375 12 12z"></path>
</symbol>
<symbol id="icon-pinterest-square" viewBox="0 0 24 28">
<title>pinterest-square</title>
<path d="M19.5 2c2.484 0 4.5 2.016 4.5 4.5v15c0 2.484-2.016 4.5-4.5 4.5h-11.328c0.516-0.734 1.359-2 1.687-3.281 0 0 0.141-0.531 0.828-3.266 0.422 0.797 1.625 1.484 2.906 1.484 3.813 0 6.406-3.484 6.406-8.141 0-3.516-2.984-6.797-7.516-6.797-5.641 0-8.484 4.047-8.484 7.422 0 2.031 0.781 3.844 2.438 4.531 0.266 0.109 0.516 0 0.594-0.297 0.047-0.203 0.172-0.734 0.234-0.953 0.078-0.297 0.047-0.406-0.172-0.656-0.469-0.578-0.781-1.297-0.781-2.344 0-3 2.25-5.672 5.844-5.672 3.187 0 4.937 1.937 4.937 4.547 0 3.422-1.516 6.312-3.766 6.312-1.234 0-2.172-1.031-1.875-2.297 0.359-1.5 1.047-3.125 1.047-4.203 0-0.969-0.516-1.781-1.594-1.781-1.266 0-2.281 1.313-2.281 3.063 0 0 0 1.125 0.375 1.891-1.297 5.5-1.531 6.469-1.531 6.469-0.344 1.437-0.203 3.109-0.109 3.969h-2.859c-2.484 0-4.5-2.016-4.5-4.5v-15c0-2.484 2.016-4.5 4.5-4.5h15z"></path>
</symbol>
<symbol id="icon-google-plus-square" viewBox="0 0 24 28">
<title>google-plus-square</title>
<path d="M14.328 14.141c0-0.391-0.047-0.703-0.094-1h-5.656v2.063h3.391c-0.125 0.875-1.016 2.578-3.391 2.578-2.063 0-3.734-1.687-3.734-3.781s1.672-3.781 3.734-3.781c1.156 0 1.937 0.484 2.391 0.922l1.625-1.578c-1.047-0.969-2.406-1.563-4.016-1.563-3.328 0-6 2.688-6 6s2.672 6 6 6c3.453 0 5.75-2.438 5.75-5.859zM19.719 14.859h1.703v-1.719h-1.703v-1.719h-1.719v1.719h-1.719v1.719h1.719v1.719h1.719v-1.719zM24 6.5v15c0 2.484-2.016 4.5-4.5 4.5h-15c-2.484 0-4.5-2.016-4.5-4.5v-15c0-2.484 2.016-4.5 4.5-4.5h15c2.484 0 4.5 2.016 4.5 4.5z"></path>
</symbol>
<symbol id="icon-google-plus" viewBox="0 0 36 28">
<title>google-plus</title>
<path d="M22.453 14.266c0 6.547-4.391 11.188-11 11.188-6.328 0-11.453-5.125-11.453-11.453s5.125-11.453 11.453-11.453c3.094 0 5.672 1.125 7.672 3l-3.109 2.984c-0.844-0.812-2.328-1.766-4.562-1.766-3.906 0-7.094 3.234-7.094 7.234s3.187 7.234 7.094 7.234c4.531 0 6.234-3.266 6.5-4.937h-6.5v-3.938h10.813c0.109 0.578 0.187 1.156 0.187 1.906zM36 12.359v3.281h-3.266v3.266h-3.281v-3.266h-3.266v-3.281h3.266v-3.266h3.281v3.266h3.266z"></path>
</symbol>
<symbol id="icon-caret-down" viewBox="0 0 16 28">
<title>caret-down</title>
<path d="M16 11c0 0.266-0.109 0.516-0.297 0.703l-7 7c-0.187 0.187-0.438 0.297-0.703 0.297s-0.516-0.109-0.703-0.297l-7-7c-0.187-0.187-0.297-0.438-0.297-0.703 0-0.547 0.453-1 1-1h14c0.547 0 1 0.453 1 1z"></path>
</symbol>
<symbol id="icon-caret-up" viewBox="0 0 16 28">
<title>caret-up</title>
<path d="M16 19c0 0.547-0.453 1-1 1h-14c-0.547 0-1-0.453-1-1 0-0.266 0.109-0.516 0.297-0.703l7-7c0.187-0.187 0.438-0.297 0.703-0.297s0.516 0.109 0.703 0.297l7 7c0.187 0.187 0.297 0.438 0.297 0.703z"></path>
</symbol>
<symbol id="icon-caret-left" viewBox="0 0 11 28">
<title>caret-left</title>
<path d="M10 7v14c0 0.547-0.453 1-1 1-0.266 0-0.516-0.109-0.703-0.297l-7-7c-0.187-0.187-0.297-0.438-0.297-0.703s0.109-0.516 0.297-0.703l7-7c0.187-0.187 0.438-0.297 0.703-0.297 0.547 0 1 0.453 1 1z"></path>
</symbol>
<symbol id="icon-caret-right" viewBox="0 0 9 28">
<title>caret-right</title>
<path d="M9 14c0 0.266-0.109 0.516-0.297 0.703l-7 7c-0.187 0.187-0.438 0.297-0.703 0.297-0.547 0-1-0.453-1-1v-14c0-0.547 0.453-1 1-1 0.266 0 0.516 0.109 0.703 0.297l7 7c0.187 0.187 0.297 0.438 0.297 0.703z"></path>
</symbol>
<symbol id="icon-columns" viewBox="0 0 26 28">
<title>columns</title>
<path d="M2.5 24h9.5v-18h-10v17.5c0 0.266 0.234 0.5 0.5 0.5zM24 23.5v-17.5h-10v18h9.5c0.266 0 0.5-0.234 0.5-0.5zM26 4.5v19c0 1.375-1.125 2.5-2.5 2.5h-21c-1.375 0-2.5-1.125-2.5-2.5v-19c0-1.375 1.125-2.5 2.5-2.5h21c1.375 0 2.5 1.125 2.5 2.5z"></path>
</symbol>
<symbol id="icon-sort" viewBox="0 0 16 28">
<title>sort</title>
<path d="M16 17c0 0.266-0.109 0.516-0.297 0.703l-7 7c-0.187 0.187-0.438 0.297-0.703 0.297s-0.516-0.109-0.703-0.297l-7-7c-0.187-0.187-0.297-0.438-0.297-0.703 0-0.547 0.453-1 1-1h14c0.547 0 1 0.453 1 1zM16 11c0 0.547-0.453 1-1 1h-14c-0.547 0-1-0.453-1-1 0-0.266 0.109-0.516 0.297-0.703l7-7c0.187-0.187 0.438-0.297 0.703-0.297s0.516 0.109 0.703 0.297l7 7c0.187 0.187 0.297 0.438 0.297 0.703z"></path>
</symbol>
<symbol id="icon-sort-desc" viewBox="0 0 16 28">
<title>sort-desc</title>
<path d="M16 17c0 0.266-0.109 0.516-0.297 0.703l-7 7c-0.187 0.187-0.438 0.297-0.703 0.297s-0.516-0.109-0.703-0.297l-7-7c-0.187-0.187-0.297-0.438-0.297-0.703 0-0.547 0.453-1 1-1h14c0.547 0 1 0.453 1 1z"></path>
</symbol>
<symbol id="icon-sort-asc" viewBox="0 0 16 28">
<title>sort-asc</title>
<path d="M16 11c0 0.547-0.453 1-1 1h-14c-0.547 0-1-0.453-1-1 0-0.266 0.109-0.516 0.297-0.703l7-7c0.187-0.187 0.438-0.297 0.703-0.297s0.516 0.109 0.703 0.297l7 7c0.187 0.187 0.297 0.438 0.297 0.703z"></path>
</symbol>
<symbol id="icon-linkedin" viewBox="0 0 24 28">
<title>linkedin</title>
<path d="M5.453 9.766v15.484h-5.156v-15.484h5.156zM5.781 4.984c0.016 1.484-1.109 2.672-2.906 2.672v0h-0.031c-1.734 0-2.844-1.188-2.844-2.672 0-1.516 1.156-2.672 2.906-2.672 1.766 0 2.859 1.156 2.875 2.672zM24 16.375v8.875h-5.141v-8.281c0-2.078-0.75-3.5-2.609-3.5-1.422 0-2.266 0.953-2.641 1.875-0.125 0.344-0.172 0.797-0.172 1.266v8.641h-5.141c0.063-14.031 0-15.484 0-15.484h5.141v2.25h-0.031c0.672-1.062 1.891-2.609 4.672-2.609 3.391 0 5.922 2.219 5.922 6.969z"></path>
</symbol>
<symbol id="icon-bolt" viewBox="0 0 14 28">
<title>bolt</title>
<path d="M13.828 8.844c0.172 0.187 0.219 0.453 0.109 0.688l-8.437 18.078c-0.125 0.234-0.375 0.391-0.656 0.391-0.063 0-0.141-0.016-0.219-0.031-0.344-0.109-0.547-0.438-0.469-0.766l3.078-12.625-6.344 1.578c-0.063 0.016-0.125 0.016-0.187 0.016-0.172 0-0.359-0.063-0.484-0.172-0.187-0.156-0.25-0.391-0.203-0.609l3.141-12.891c0.078-0.297 0.359-0.5 0.688-0.5h5.125c0.391 0 0.703 0.297 0.703 0.656 0 0.094-0.031 0.187-0.078 0.281l-2.672 7.234 6.188-1.531c0.063-0.016 0.125-0.031 0.187-0.031 0.203 0 0.391 0.094 0.531 0.234z"></path>
</symbol>
<symbol id="icon-umbrella" viewBox="0 0 26 28">
<title>umbrella</title>
<path d="M14 12.938v9.063c0 2.172-1.828 4-4 4s-4-1.828-4-4c0-0.547 0.453-1 1-1s1 0.453 1 1c0 1.047 0.953 2 2 2s2-0.953 2-2v-9.063c0.328-0.109 0.656-0.172 1-0.172s0.672 0.063 1 0.172zM26 13.359c0 0.266-0.234 0.5-0.5 0.5-0.141 0-0.25-0.063-0.359-0.156-0.906-0.844-1.75-1.437-3.047-1.437-1.484 0-2.766 0.922-3.609 2.094-0.187 0.266-0.328 0.547-0.5 0.812-0.109 0.172-0.234 0.266-0.438 0.266-0.219 0-0.344-0.094-0.453-0.266-0.172-0.266-0.313-0.547-0.5-0.812-0.844-1.172-2.109-2.094-3.594-2.094s-2.75 0.922-3.594 2.094c-0.187 0.266-0.328 0.547-0.5 0.812-0.109 0.172-0.234 0.266-0.453 0.266-0.203 0-0.328-0.094-0.438-0.266-0.172-0.266-0.313-0.547-0.5-0.812-0.844-1.172-2.125-2.094-3.609-2.094-1.297 0-2.141 0.594-3.047 1.437-0.109 0.094-0.219 0.156-0.359 0.156-0.266 0-0.5-0.234-0.5-0.5 0-0.047 0-0.078 0.016-0.109 1.437-5.906 7.141-9.25 12.984-9.25 5.812 0 11.578 3.344 12.984 9.25 0.016 0.031 0.016 0.063 0.016 0.109zM14 2v1.531c-0.328-0.016-0.672-0.031-1-0.031s-0.672 0.016-1 0.031v-1.531c0-0.547 0.453-1 1-1s1 0.453 1 1z"></path>
</symbol>
<symbol id="icon-user-md" viewBox="0 0 22 28">
<title>user-md</title>
<path d="M6 21c0 0.547-0.453 1-1 1s-1-0.453-1-1 0.453-1 1-1 1 0.453 1 1zM22 21.953c0 2.547-1.672 4.047-4.172 4.047h-13.656c-2.5 0-4.172-1.5-4.172-4.047 0-3.109 0.625-8.016 4.344-8.828-0.25 0.594-0.344 1.234-0.344 1.875v3.172c-1.203 0.422-2 1.563-2 2.828 0 1.656 1.344 3 3 3s3-1.344 3-3c0-1.266-0.812-2.406-2-2.828v-3.172c0-0.516 0.047-1.031 0.391-1.453 1.313 1.031 2.938 1.625 4.609 1.625s3.297-0.594 4.609-1.625c0.344 0.422 0.391 0.938 0.391 1.453v1c-2.203 0-4 1.797-4 4v1.391c-0.313 0.281-0.5 0.688-0.5 1.109 0 0.828 0.672 1.5 1.5 1.5s1.5-0.672 1.5-1.5c0-0.422-0.187-0.828-0.5-1.109v-1.391c0-1.094 0.906-2 2-2s2 0.906 2 2v1.391c-0.313 0.281-0.5 0.688-0.5 1.109 0 0.828 0.672 1.5 1.5 1.5s1.5-0.672 1.5-1.5c0-0.422-0.187-0.828-0.5-1.109v-1.391c0-1.422-0.766-2.75-2-3.453 0-1.141 0.109-2.359-0.344-3.422 3.719 0.812 4.344 5.719 4.344 8.828zM17 8c0 3.313-2.688 6-6 6s-6-2.688-6-6 2.688-6 6-6 6 2.688 6 6z"></path>
</symbol>
<symbol id="icon-stethoscope" viewBox="0 0 22 28">
<title>stethoscope</title>
<path d="M20 11c0-0.547-0.453-1-1-1s-1 0.453-1 1 0.453 1 1 1 1-0.453 1-1zM22 11c0 1.313-0.828 2.406-2 2.828v6.172c0 3.313-3.141 6-7 6s-7-2.688-7-6v-2.063c-3.391-0.422-6-2.922-6-5.938v-8c0-0.547 0.453-1 1-1 0.094 0 0.172 0.016 0.25 0.031 0.344-0.609 1-1.031 1.75-1.031 1.109 0 2 0.891 2 2s-0.891 2-2 2c-0.359 0-0.703-0.109-1-0.281v6.281c0 2.203 2.25 4 5 4s5-1.797 5-4v-6.281c-0.297 0.172-0.641 0.281-1 0.281-1.109 0-2-0.891-2-2s0.891-2 2-2c0.75 0 1.406 0.422 1.75 1.031 0.078-0.016 0.156-0.031 0.25-0.031 0.547 0 1 0.453 1 1v8c0 3.016-2.609 5.516-6 5.938v2.063c0 2.203 2.25 4 5 4s5-1.797 5-4v-6.172c-1.172-0.422-2-1.516-2-2.828 0-1.656 1.344-3 3-3s3 1.344 3 3z"></path>
</symbol>
<symbol id="icon-coffee" viewBox="0 0 29 28">
<title>coffee</title>
<path d="M26 10c0-1.656-1.344-3-3-3h-1v6h1c1.656 0 3-1.344 3-3zM0 22h28c0 2.203-1.797 4-4 4h-20c-2.203 0-4-1.797-4-4zM29 10c0 3.313-2.688 6-6 6h-1v0.5c0 1.922-1.578 3.5-3.5 3.5h-11c-1.922 0-3.5-1.578-3.5-3.5v-11.5c0-0.547 0.453-1 1-1h18c3.313 0 6 2.688 6 6z"></path>
</symbol>
<symbol id="icon-cutlery" viewBox="0 0 22 28">
<title>cutlery</title>
<path d="M10 1v10c0 1.266-0.812 2.406-2 2.828v12.172c0 1.094-0.906 2-2 2h-2c-1.094 0-2-0.906-2-2v-12.172c-1.188-0.422-2-1.563-2-2.828v-10c0-0.547 0.453-1 1-1s1 0.453 1 1v6.5c0 0.547 0.453 1 1 1s1-0.453 1-1v-6.5c0-0.547 0.453-1 1-1s1 0.453 1 1v6.5c0 0.547 0.453 1 1 1s1-0.453 1-1v-6.5c0-0.547 0.453-1 1-1s1 0.453 1 1zM22 1v25c0 1.094-0.906 2-2 2h-2c-1.094 0-2-0.906-2-2v-8h-3.5c-0.266 0-0.5-0.234-0.5-0.5v-12.5c0-2.75 2.25-5 5-5h4c0.547 0 1 0.453 1 1z"></path>
</symbol>
<symbol id="icon-beer" viewBox="0 0 27 28">
<title>beer</title>
<path d="M10 14v-6h-4v4c0 1.109 0.891 2 2 2h2zM26 21v3h-18v-3l2-3h-2c-3.313 0-6-2.688-6-6v-5l-1-1 0.5-2h7.5l0.5-2h15l0.5 3-1 0.5v12.5z"></path>
</symbol>
<symbol id="icon-smile-o" viewBox="0 0 24 28">
<title>smile-o</title>
<path d="M17.719 16.797c-0.781 2.516-3.078 4.203-5.719 4.203s-4.937-1.687-5.719-4.203c-0.172-0.531 0.125-1.078 0.656-1.25 0.516-0.172 1.078 0.125 1.25 0.656 0.516 1.672 2.063 2.797 3.813 2.797s3.297-1.125 3.813-2.797c0.172-0.531 0.734-0.828 1.266-0.656 0.516 0.172 0.812 0.719 0.641 1.25zM10 10c0 1.109-0.891 2-2 2s-2-0.891-2-2 0.891-2 2-2 2 0.891 2 2zM18 10c0 1.109-0.891 2-2 2s-2-0.891-2-2 0.891-2 2-2 2 0.891 2 2zM22 14c0-5.516-4.484-10-10-10s-10 4.484-10 10 4.484 10 10 10 10-4.484 10-10zM24 14c0 6.625-5.375 12-12 12s-12-5.375-12-12 5.375-12 12-12 12 5.375 12 12z"></path>
</symbol>
<symbol id="icon-frown-o" viewBox="0 0 24 28">
<title>frown-o</title>
<path d="M17.719 19.203c0.172 0.531-0.125 1.078-0.641 1.25-0.531 0.172-1.094-0.125-1.266-0.656-0.516-1.672-2.063-2.797-3.813-2.797s-3.297 1.125-3.813 2.797c-0.172 0.531-0.734 0.828-1.25 0.656-0.531-0.172-0.828-0.719-0.656-1.25 0.781-2.516 3.078-4.203 5.719-4.203s4.937 1.687 5.719 4.203zM10 10c0 1.109-0.891 2-2 2s-2-0.891-2-2 0.891-2 2-2 2 0.891 2 2zM18 10c0 1.109-0.891 2-2 2s-2-0.891-2-2 0.891-2 2-2 2 0.891 2 2zM22 14c0-5.516-4.484-10-10-10s-10 4.484-10 10 4.484 10 10 10 10-4.484 10-10zM24 14c0 6.625-5.375 12-12 12s-12-5.375-12-12 5.375-12 12-12 12 5.375 12 12z"></path>
</symbol>
<symbol id="icon-meh-o" viewBox="0 0 24 28">
<title>meh-o</title>
<path d="M18 17c0 0.547-0.453 1-1 1h-10c-0.547 0-1-0.453-1-1s0.453-1 1-1h10c0.547 0 1 0.453 1 1zM10 10c0 1.109-0.891 2-2 2s-2-0.891-2-2 0.891-2 2-2 2 0.891 2 2zM18 10c0 1.109-0.891 2-2 2s-2-0.891-2-2 0.891-2 2-2 2 0.891 2 2zM22 14c0-5.516-4.484-10-10-10s-10 4.484-10 10 4.484 10 10 10 10-4.484 10-10zM24 14c0 6.625-5.375 12-12 12s-12-5.375-12-12 5.375-12 12-12 12 5.375 12 12z"></path>
</symbol>
<symbol id="icon-star-half-empty" viewBox="0 0 26 28">
<title>star-half-empty</title>
<path d="M18.531 14.953l4.016-3.906-6.594-0.969-0.469-0.938-2.484-5.031v15.047l0.922 0.484 4.969 2.625-0.938-5.547-0.187-1.031zM25.594 10.859l-5.672 5.531 1.344 7.812c0.109 0.688-0.141 1.094-0.625 1.094-0.172 0-0.391-0.063-0.625-0.187l-7.016-3.687-7.016 3.687c-0.234 0.125-0.453 0.187-0.625 0.187-0.484 0-0.734-0.406-0.625-1.094l1.344-7.812-5.688-5.531c-0.672-0.672-0.453-1.328 0.484-1.469l7.844-1.141 3.516-7.109c0.203-0.422 0.484-0.641 0.766-0.641v0c0.281 0 0.547 0.219 0.766 0.641l3.516 7.109 7.844 1.141c0.938 0.141 1.156 0.797 0.469 1.469z"></path>
</symbol>
<symbol id="icon-calendar-o" viewBox="0 0 26 28">
<title>calendar-o</title>
<path d="M2 26h22v-16h-22v16zM8 7v-4.5c0-0.281-0.219-0.5-0.5-0.5h-1c-0.281 0-0.5 0.219-0.5 0.5v4.5c0 0.281 0.219 0.5 0.5 0.5h1c0.281 0 0.5-0.219 0.5-0.5zM20 7v-4.5c0-0.281-0.219-0.5-0.5-0.5h-1c-0.281 0-0.5 0.219-0.5 0.5v4.5c0 0.281 0.219 0.5 0.5 0.5h1c0.281 0 0.5-0.219 0.5-0.5zM26 6v20c0 1.094-0.906 2-2 2h-22c-1.094 0-2-0.906-2-2v-20c0-1.094 0.906-2 2-2h2v-1.5c0-1.375 1.125-2.5 2.5-2.5h1c1.375 0 2.5 1.125 2.5 2.5v1.5h6v-1.5c0-1.375 1.125-2.5 2.5-2.5h1c1.375 0 2.5 1.125 2.5 2.5v1.5h2c1.094 0 2 0.906 2 2z"></path>
</symbol>
<symbol id="icon-paint-brush" viewBox="0 0 28 28">
<title>paint-brush</title>
<path d="M25.234 0c1.422 0 2.734 1.062 2.734 2.547 0 0.828-0.328 1.625-0.703 2.359-1.219 2.312-5.313 9.953-7.266 11.75-0.953 0.891-2.078 1.422-3.406 1.422-2.641 0-4.797-2.25-4.797-4.875 0-1.25 0.516-2.469 1.437-3.313l9.969-9.047c0.547-0.5 1.266-0.844 2.031-0.844zM11.031 16.156c0.812 1.578 2.297 2.766 4.016 3.219l0.016 1.109c0.094 4.453-3 7.516-7.469 7.516-5.297 0-7.594-4.219-7.594-9.016 0.578 0.391 2.594 2 3.25 2 0.391 0 0.719-0.219 0.859-0.578 1.328-3.469 3.406-4.094 6.922-4.25z"></path>
</symbol>
<symbol id="icon-heartbeat" viewBox="0 0 28 28">
<title>heartbeat</title>
<path d="M20 16h4.766c-0.187 0.203-0.313 0.313-0.344 0.344l-9.734 9.375c-0.187 0.187-0.438 0.281-0.688 0.281s-0.5-0.094-0.688-0.281l-9.75-9.406c-0.031-0.016-0.156-0.125-0.328-0.313h5.766c0.453 0 0.859-0.313 0.969-0.75l1.094-4.391 2.969 10.422c0.125 0.422 0.516 0.719 0.969 0.719v0c0.438 0 0.828-0.297 0.953-0.719l2.281-7.578 0.875 1.75c0.172 0.328 0.516 0.547 0.891 0.547zM28 9.312c0 1.797-0.781 3.437-1.609 4.688h-5.766l-1.734-3.453c-0.172-0.359-0.578-0.578-0.969-0.547-0.422 0.047-0.766 0.313-0.875 0.719l-2.016 6.719-3.063-10.719c-0.125-0.422-0.516-0.719-0.984-0.719-0.453 0-0.844 0.313-0.953 0.75l-1.813 7.25h-6.609c-0.828-1.25-1.609-2.891-1.609-4.688 0-4.578 2.797-7.313 7.469-7.313 2.734 0 5.297 2.156 6.531 3.375 1.234-1.219 3.797-3.375 6.531-3.375 4.672 0 7.469 2.734 7.469 7.313z"></path>
</symbol>
<symbol id="icon-sign-language" viewBox="0 0 26 28">
<title>sign-language</title>
<path d="M12.984 10.516c0.328 0 0.641 0.094 0.922 0.281l3.469 2.312c0.641 0.422 1.219 0.938 1.719 1.516l2.281 2.656c0.391 0.453 0.562 1.062 0.453 1.656l-1.125 6.453c-0.125 0.656-0.656 1.156-1.328 1.234l-8.234 0.875-5.5 0.5h-0.141c-0.812 0-1.5-0.656-1.5-1.5 0-0.781 0.656-1.406 1.437-1.5l4.062-0.5h-7c-0.859 0-1.547-0.719-1.5-1.578 0.047-0.812 0.766-1.422 1.578-1.422l6.906-0.016-8.141-1c-0.844-0.094-1.453-0.859-1.328-1.719 0.125-0.75 0.812-1.25 1.563-1.25h0.156l7.516 0.938-5.484-1.469c-0.781-0.203-1.375-0.922-1.25-1.719 0.125-0.75 0.766-1.266 1.484-1.266 0.109 0 0.203 0.016 0.313 0.031l7 1.5 3.391 0.578c0.031 0 0.063 0.016 0.094 0.016 0.469 0 0.703-0.641 0.281-0.922l-2.906-1.953c-0.719-0.484-0.891-1.453-0.375-2.141 0.281-0.391 0.734-0.594 1.188-0.594zM11.891 13.672l2.906 1.953-3.406-0.578-0.078-0.031-0.562-0.594-3.719-4.094c-0.031-0.031-0.047-0.078-0.078-0.109-0.484-0.641-0.375-1.578 0.297-2.094 0.625-0.484 1.516-0.328 2.063 0.25l2.219 2.297c-0.047 0.047-0.094 0.078-0.141 0.125-0.328 0.453-0.453 1-0.359 1.547 0.094 0.531 0.406 1.016 0.859 1.328zM25.75 6.578l0.234 4.156c0.047 0.766-0.016 1.547-0.172 2.297l-0.75 3.422c-0.125 0.594-0.5 1.078-1.047 1.359l-1.656 0.844c0.016-0.625-0.187-1.219-0.609-1.703l-2.281-2.656c-0.531-0.609-1.141-1.156-1.828-1.609l-3.469-2.312c-0.344-0.234-0.75-0.359-1.188-0.359-0.531 0-1.016 0.219-1.375 0.578l-3.672-4.875c-0.516-0.688-0.359-1.656 0.359-2.141 0.672-0.469 1.594-0.25 2.094 0.406l4.156 5.5-4.094-7.109c-0.438-0.734-0.187-1.687 0.578-2.094 0.719-0.375 1.625-0.078 2.031 0.625l3.766 6.563-2.125-5.266c-0.297-0.75-0.094-1.656 0.625-2.031 0.766-0.406 1.703-0.078 2.063 0.703l3.016 6.484 1.578 3.063c0.25 0.484 0.984 0.281 0.953-0.25l-0.187-3.5c-0.047-0.859 0.625-1.578 1.484-1.594 0.812 0 1.469 0.688 1.516 1.5z"></path>
</symbol>
<symbol id="icon-viadeo" viewBox="0 0 20 28">
<title>viadeo</title>
<path d="M16.406 17.281c0 2.234-0.781 4.203-2.297 5.844-1.578 1.719-3.578 2.516-5.906 2.516-2.312 0-4.328-0.781-5.906-2.516-1.516-1.641-2.297-3.609-2.297-5.844 0-4.641 3.5-8.437 8.203-8.437 0.969 0 1.937 0.156 2.844 0.484-0.313 0.609-0.531 1.281-0.609 1.969-0.703-0.297-1.469-0.438-2.234-0.438-3.547 0-6.156 3.031-6.156 6.469 0 3.5 2.594 6.359 6.156 6.359s6.141-2.859 6.141-6.359c0-0.891-0.156-1.766-0.5-2.594 0.688-0.141 1.344-0.406 1.922-0.766 0.438 1.047 0.641 2.188 0.641 3.313zM13.219 14.328c0 3.938-1.594 7.219-4.969 9.344l-0.219 0.016c-0.328 0-0.656-0.031-0.969-0.078 4.516-1.719 5.344-8.578 5.344-12.766 0-0.531 0-1.078-0.047-1.609 0.562 1.641 0.859 3.359 0.859 5.094zM12.359 9.203v0.031c-0.812-2.391-1.937-4.703-3.219-6.875 1.969 1.328 3.047 4.547 3.219 6.844zM16.172 12.375c-0.969 0-1.828-0.516-2.5-1.172 1.594-0.875 3.609-2.234 4.531-3.859 0.109-0.219 0.297-0.625 0.328-0.875-0.906 2.031-3.219 3.625-5.375 4.125-0.344-0.531-0.547-1.125-0.547-1.766 0-0.75 0.375-1.75 0.938-2.297 0.641-0.609 1.594-0.922 2.453-1.156 1.25-0.344 2.266-1.313 2.812-2.484 0.812 1.156 1.156 2.562 1.156 3.953 0 0.703-0.109 1.984-0.375 2.656-0.578 1.406-1.75 2.875-3.422 2.875z"></path>
</symbol>
<symbol id="icon-bolt1" viewBox="0 0 20 20">
<title>bolt1</title>
<path d="M13 8v-8l-10 12h4v8l10-12h-4z"></path>
</symbol>
<symbol id="icon-location-food" viewBox="0 0 20 20">
<title>location-food</title>
<path d="M18 11v7c0 1.105-0.895 2-2 2s-2-0.895-2-2v0-5h-2v-10c0-1.657 1.343-3 3-3v0h3v11zM4 10c-1.105 0-2-0.895-2-2v0-7c0-0.552 0.448-1 1-1s1 0.448 1 1v0 4h1v-4c0-0.552 0.448-1 1-1s1 0.448 1 1v0 4h1v-4c0-0.552 0.448-1 1-1s1 0.448 1 1v0 7c0 1.105-0.895 2-2 2v0 8c0 1.105-0.895 2-2 2s-2-0.895-2-2v0-8z"></path>
</symbol>
<symbol id="icon-location-restroom" viewBox="0 0 20 20">
<title>location-restroom</title>
<path d="M12 16h-3l2-4.5v-2.5c0-1.1 0.9-2 2-2h2c1.105 0 2 0.895 2 2v0 2.5l2 4.5h-3v4h-4v-4zM7 13h2v-4c0-1.105-0.895-2-2-2v0h-4c-1.105 0-2 0.895-2 2v0 4h2v7h4v-7zM5 6c-1.657 0-3-1.343-3-3s1.343-3 3-3v0c1.657 0 3 1.343 3 3s-1.343 3-3 3v0zM14 6c-1.657 0-3-1.343-3-3s1.343-3 3-3v0c1.657 0 3 1.343 3 3s-1.343 3-3 3v0z"></path>
</symbol>
<symbol id="icon-bookmark1" viewBox="0 0 20 20">
<title>bookmark1</title>
<path d="M14 2v17l-4-4-4 4v-17c0-0.553 0.585-1.020 1-1h6c0.689-0.020 1 0.447 1 1z"></path>
</symbol>
<symbol id="icon-chevron-thin-right" viewBox="0 0 20 20">
<title>chevron-thin-right</title>
<path d="M13.25 10l-7.141-7.42c-0.268-0.27-0.268-0.707 0-0.979 0.268-0.27 0.701-0.27 0.969 0l7.83 7.908c0.268 0.271 0.268 0.709 0 0.979l-7.83 7.908c-0.268 0.271-0.701 0.27-0.969 0s-0.268-0.707 0-0.979l7.141-7.417z"></path>
</symbol>
<symbol id="icon-aircraft-take-off" viewBox="0 0 20 20">
<title>aircraft-take-off</title>
<path d="M19.87 6.453c0.119 0.257 0.127 1.29-4.884 3.642l-4.913 2.306c-1.71 0.803-4.191 1.859-5.285 2.151-0.766 0.204-1.497-0.316-1.497-0.316s-2.206-1.975-2.792-2.419c-0.585-0.444-0.535-0.67 0.215-0.91 0.467-0.149 3.13 0.493 4.265 0.78 1.339-0.8 2.562-1.486 3.141-1.798-1.396-1.033-4.008-2.962-4.841-3.55-0.799-0.565 0.010-0.768 0.010-0.768 0.368-0.099 1.162-0.228 1.562-0.144 2.721 0.569 7.263 2.071 7.611 2.186 0.832-0.436 2.128-1.092 2.922-1.465 2.075-0.974 4.327-0.037 4.486 0.305z"></path>
</symbol>
<symbol id="icon-bowl" viewBox="0 0 20 20">
<title>bowl</title>
<path d="M16.949 7.472c-2.176 2.902-4.095 3.002-7.046 3.152h-0.101c-3.591-0.002-6.138-1.336-6.138-1.832-0.002-0.471 2.298-1.697 5.605-1.819l0.59-1.473c-0.019 0-0.037-0.002-0.057-0.002-4.908 0-7.791 1.562-7.791 3.051v2c0 0.918 0.582 8.949 7.582 8.949s8-8.031 8-8.949v-2c0-0.391-0.201-0.787-0.584-1.158l-0.060 0.081zM17.589 2.702c-0.441-0.33-1.069-0.242-1.399 0.201l-3.608 4.809 2.336-5.838c0.206-0.512-0.044-1.094-0.557-1.301-0.508-0.205-1.096 0.043-1.3 0.559l-3.259 8.142c2.882-0.147 4.277-0.227 6.067-2.611 1.789-2.387 1.919-2.561 1.919-2.561 0.332-0.441 0.243-1.068-0.199-1.4z"></path>
</symbol>
<symbol id="icon-chat" viewBox="0 0 20 20">
<title>chat</title>
<path d="M5.8 12.2v-6.2h-3.8c-1.1 0-2 0.9-2 2v6c0 1.1 0.9 2 2 2h1v3l3-3h5c1.1 0 2-0.9 2-2v-1.82c-0.064 0.014-0.132 0.021-0.2 0.021l-7-0.001zM18 1h-9c-1.1 0-2 0.9-2 2v8h7l3 3v-3h1c1.1 0 2-0.899 2-2v-6c0-1.1-0.9-2-2-2z"></path>
</symbol>
<symbol id="icon-home1" viewBox="0 0 20 20">
<title>home1</title>
<path d="M18.672 11h-1.672v6c0 0.445-0.194 1-1 1h-4v-6h-4v6h-4c-0.806 0-1-0.555-1-1v-6h-1.672c-0.598 0-0.47-0.324-0.060-0.748l8.024-8.032c0.195-0.202 0.451-0.302 0.708-0.312 0.257 0.010 0.513 0.109 0.708 0.312l8.023 8.031c0.411 0.425 0.539 0.749-0.059 0.749z"></path>
</symbol>
<symbol id="icon-key1" viewBox="0 0 20 20">
<title>key1</title>
<path d="M17.691 4.725c-0.503-2.977-3.22-4.967-6.069-4.441s-5.256 2.816-4.753 5.795c0.107 0.641 0.408 1.644 0.763 2.365l-5.175 7.723c-0.191 0.285-0.299 0.799-0.242 1.141l0.333 1.971c0.058 0.342 0.372 0.572 0.7 0.514l1.516-0.281c0.328-0.059 0.744-0.348 0.924-0.639l2.047-3.311 0.018-0.022 1.386-0.256 2.39-3.879c0.785 0.139 1.912 0.092 2.578-0.031 2.848-0.526 4.087-3.67 3.584-6.649zM15.166 6.252c-0.784 1.17-1.584 0.346-2.703-0.475-1.119-0.818-2.135-1.322-1.352-2.492s2.326-1.455 3.447-0.635c1.12 0.819 1.391 2.432 0.608 3.602z"></path>
</symbol>
<symbol id="icon-location-pin" viewBox="0 0 20 20">
<title>location-pin</title>
<path d="M10 2.009c-2.762 0-5 2.229-5 4.99 0 4.774 5 11 5 11s5-6.227 5-11c0-2.76-2.238-4.99-5-4.99zM10 9.76c-1.492 0-2.7-1.209-2.7-2.7s1.208-2.7 2.7-2.7c1.49 0 2.699 1.209 2.699 2.7s-1.209 2.7-2.699 2.7z"></path>
</symbol>
<symbol id="icon-magnifying-glass" viewBox="0 0 20 20">
<title>magnifying-glass</title>
<path d="M17.545 15.467l-3.779-3.779c0.57-0.935 0.898-2.035 0.898-3.21 0-3.417-2.961-6.377-6.378-6.377s-6.186 2.769-6.186 6.186c0 3.416 2.961 6.377 6.377 6.377 1.137 0 2.2-0.309 3.115-0.844l3.799 3.801c0.372 0.371 0.975 0.371 1.346 0l0.943-0.943c0.371-0.371 0.236-0.84-0.135-1.211zM4.004 8.287c0-2.366 1.917-4.283 4.282-4.283s4.474 2.107 4.474 4.474c0 2.365-1.918 4.283-4.283 4.283s-4.473-2.109-4.473-4.474z"></path>
</symbol>
<symbol id="icon-map" viewBox="0 0 20 20">
<title>map</title>
<path d="M19.447 3.718l-6-3c-0.281-0.141-0.613-0.141-0.895 0l-5.63 2.815-5.606-1.869c-0.306-0.102-0.64-0.051-0.901 0.138s-0.415 0.49-0.415 0.811v13.001c0 0.379 0.214 0.725 0.553 0.894l6 3c0.141 0.070 0.294 0.106 0.447 0.106s0.307-0.035 0.447-0.106l5.63-2.814 5.606 1.869c0.305 0.1 0.64 0.049 0.901-0.139s0.415-0.49 0.415-0.81v-13.002c0.001-0.379-0.213-0.725-0.552-0.894zM8 5.231l4-2v11.763l-4 2v-11.763zM2 4l4 1.333v11.661l-4-2v-10.994zM18 16.227l-4-1.334v-11.662l4 2v10.996z"></path>
</symbol>
<symbol id="icon-star11" viewBox="0 0 20 20">
<title>star11</title>
<path d="M10 1.3l2.388 6.722h6.412l-5.232 3.948 1.871 6.928-5.439-4.154-5.438 4.154 1.87-6.928-5.233-3.948h6.412l2.389-6.722z"></path>
</symbol>
</defs>
</svg>
